<svg width="50" height="50" viewBox="0 0 50 50" fill="none" xmlns="http://www.w3.org/2000/svg">
<g clip-path="url(#clip0)">
<path d="M37.2221 12H12.7775C11.857 12 11.1108 12.7461 11.1108 13.6667V36.3334C11.1108 37.2539 11.8569 38.0001 12.7775 38.0001H37.222C38.1425 38.0001 38.8887 37.254 38.8887 36.3334V13.6667C38.8887 12.7461 38.1426 12 37.2221 12ZM35.5554 34.6667H14.4442V15.3333H35.5554V34.6667Z" fill="#25A1D3"/>
<path d="M7.22236 14.7778C6.30176 14.7778 5.55566 15.5239 5.55566 16.4445V33.5557C5.55566 34.4763 6.30176 35.2224 7.22236 35.2224C8.14287 35.2224 8.88906 34.4763 8.88906 33.5557V16.4445C8.88896 15.524 8.14287 14.7778 7.22236 14.7778Z" fill="#25A1D3"/>
<path d="M1.6667 17.5557C0.746094 17.5557 0 18.3018 0 19.2224V30.7779C0 31.6984 0.746094 32.4446 1.6667 32.4446C2.5873 32.4446 3.3334 31.6985 3.3334 30.7779V19.2224C3.3333 18.3018 2.58721 17.5557 1.6667 17.5557Z" fill="#25A1D3"/>
<path d="M42.7775 14.7778C41.857 14.7778 41.1108 15.5239 41.1108 16.4445V33.5557C41.1108 34.4763 41.8569 35.2224 42.7775 35.2224C43.6982 35.2224 44.4442 34.4763 44.4442 33.5557V16.4445C44.4442 15.524 43.6982 14.7778 42.7775 14.7778Z" fill="#25A1D3"/>
<path d="M48.3332 17.5557C47.4127 17.5557 46.6665 18.3018 46.6665 19.2224V30.7779C46.6665 31.6984 47.4126 32.4446 48.3332 32.4446C49.2538 32.4446 49.9999 31.6984 49.9999 30.7778V19.2224C49.9999 18.3018 49.2538 17.5557 48.3332 17.5557Z" fill="#25A1D3"/>
</g>
<defs>
<clipPath id="clip0">
<rect width="50" height="50" fill="white"/>
</clipPath>
</defs>
</svg>
