<svg width="50" height="50" viewBox="0 0 50 50" fill="none" xmlns="http://www.w3.org/2000/svg">
<g clip-path="url(#clip0)">
<path d="M43.3154 18.2608C43.2887 18.2608 43.2616 18.2619 43.2344 18.263L16.8817 19.5728L14.1762 14.9869C13.8056 14.3587 13.0627 14.0538 12.3593 14.238L8.82671 15.1619C8.38052 15.2788 8.00445 15.5793 7.79195 15.9891C7.57945 16.3994 7.55064 16.8798 7.71255 17.3119L10.5959 25L7.71207 32.6881C7.55015 33.1207 7.57886 33.6012 7.79146 34.0109C8.00337 34.4207 8.37955 34.7213 8.82623 34.8381L12.3588 35.762C12.4963 35.7984 12.6349 35.8152 12.7719 35.8152C13.3437 35.8152 13.8866 35.5142 14.1834 35.0011L16.8916 30.319L43.2345 31.6283C43.2612 31.63 43.2883 31.6305 43.3155 31.6305C47.0013 31.6305 50.0002 28.6316 50.0002 24.9457C50.0002 21.2599 47.0012 18.2608 43.3154 18.2608ZM43.3523 28.3695L16.0593 27.013C15.449 26.9755 14.8729 27.2956 14.5669 27.8249L11.9827 32.2934L11.4006 32.1412L13.8637 25.5722C14.0018 25.2026 14.0018 24.7961 13.8637 24.4271L11.4006 17.8586L11.993 17.7037L14.574 22.0781C14.8821 22.6004 15.4593 22.914 16.0593 22.8781L43.3523 21.5216C45.1915 21.5417 46.7392 23.1015 46.7392 24.9455C46.7392 26.7896 45.1915 28.3489 43.3523 28.3695Z" fill="#25A1D3"/>
<path d="M35.8065 21.1239L38.65 19.5282L30.6608 5.28916C30.3722 4.775 29.8288 4.45654 29.239 4.45654H22.3369C21.8206 4.45654 21.3352 4.70107 21.0276 5.11523C20.72 5.52988 20.627 6.06523 20.7765 6.55928L25.2331 21.2875L28.3537 20.343L24.5337 7.71738H28.2842L35.8065 21.1239Z" fill="#25A1D3"/>
<path d="M35.8613 28.82L28.2858 42.2825H24.5336L28.3537 29.6569L25.233 28.7124L20.7765 43.4406C20.6271 43.9347 20.7199 44.47 21.0276 44.8847C21.3352 45.2993 21.8205 45.5434 22.3368 45.5434H29.239C29.8281 45.5434 30.371 45.226 30.6597 44.7129L38.7031 30.4194L35.8613 28.82Z" fill="#25A1D3"/>
<path d="M14.0762 7.60864H4.29355C3.39297 7.60864 2.66309 8.33853 2.66309 9.23911C2.66309 10.1397 3.39297 10.8696 4.29355 10.8696H14.0762C14.9768 10.8696 15.7066 10.1397 15.7066 9.23911C15.7066 8.33853 14.9768 7.60864 14.0762 7.60864Z" fill="#25A1D3"/>
<path d="M14.0762 39.1304H4.29355C3.39297 39.1304 2.66309 39.8603 2.66309 40.7608C2.66309 41.6614 3.39297 42.3913 4.29355 42.3913H14.0762C14.9768 42.3913 15.7066 41.6614 15.7066 40.7608C15.7066 39.8603 14.9768 39.1304 14.0762 39.1304Z" fill="#25A1D3"/>
<path d="M5.97822 23.3696H1.63047C0.729883 23.3696 0 24.0995 0 25.0001C0 25.9007 0.729883 26.6306 1.63047 26.6306H5.97832C6.87891 26.6306 7.60879 25.9007 7.60879 25.0001C7.60879 24.0995 6.87881 23.3696 5.97822 23.3696Z" fill="#25A1D3"/>
</g>
<defs>
<clipPath id="clip0">
<rect width="50" height="50" fill="white"/>
</clipPath>
</defs>
</svg>
