<svg width="50" height="50" viewBox="0 0 50 50" fill="none" xmlns="http://www.w3.org/2000/svg">
<path d="M37.7625 30.0588C34.2872 30.0588 31.46 32.8861 31.46 36.3614C31.46 39.8367 34.2872 42.6639 37.7625 42.6639C41.2384 42.6639 44.065 39.8367 44.065 36.3614C44.065 32.8861 41.2378 30.0588 37.7625 30.0588ZM37.7625 39.5126C36.0246 39.5126 34.6112 38.0993 34.6112 36.3614C34.6112 34.6235 36.0246 33.2101 37.7625 33.2101C39.5004 33.2101 40.9138 34.6235 40.9138 36.3614C40.9138 38.0994 39.5004 39.5126 37.7625 39.5126Z" fill="#25A1D3"/>
<path d="M16.2288 30.0588C12.7535 30.0588 9.92627 32.8861 9.92627 36.3614C9.92627 39.8367 12.7535 42.6639 16.2288 42.6639C19.7041 42.6639 22.5313 39.8367 22.5313 36.3614C22.5313 32.8861 19.7041 30.0588 16.2288 30.0588ZM16.2288 39.5126C14.4909 39.5126 13.0775 38.0993 13.0775 36.3614C13.0775 34.6235 14.4909 33.2101 16.2288 33.2101C17.9662 33.2101 19.3801 34.6235 19.3801 36.3614C19.3801 38.0994 17.9667 39.5126 16.2288 39.5126Z" fill="#25A1D3"/>
<path d="M42.0067 12.019C41.7389 11.487 41.1942 11.1514 40.5986 11.1514H32.3003V14.3026H39.627L43.9174 22.8362L46.7336 21.4202L42.0067 12.019Z" fill="#25A1D3"/>
<path d="M33.0355 34.8384H21.1133V37.9897H33.0355V34.8384Z" fill="#25A1D3"/>
<path d="M11.5021 34.8384H6.03994C5.16963 34.8384 4.46436 35.5437 4.46436 36.414C4.46436 37.2843 5.16973 37.9895 6.03994 37.9895H11.5021C12.3725 37.9895 13.0777 37.2842 13.0777 36.414C13.0777 35.5437 12.3724 34.8384 11.5021 34.8384Z" fill="#25A1D3"/>
<path d="M49.6691 25.2059L46.5699 21.2143C46.2722 20.8298 45.8126 20.605 45.3257 20.605H33.8761V9.57559C33.8761 8.70527 33.1707 8 32.3005 8H6.03994C5.16963 8 4.46436 8.70537 4.46436 9.57559C4.46436 10.4458 5.16973 11.1512 6.03994 11.1512H30.7248V22.1806C30.7248 23.0509 31.4302 23.7561 32.3004 23.7561H44.5541L46.8487 26.712V34.8381H42.4895C41.6191 34.8381 40.9139 35.5435 40.9139 36.4137C40.9139 37.284 41.6192 37.9893 42.4895 37.9893H48.4243C49.2946 37.9893 49.9999 37.2839 50 36.4137V26.1723C50 25.8225 49.8834 25.4821 49.6691 25.2059Z" fill="#25A1D3"/>
<path d="M11.3973 26.855H4.14932C3.279 26.855 2.57373 27.5604 2.57373 28.4306C2.57373 29.3009 3.2791 30.0062 4.14932 30.0062H11.3972C12.2675 30.0062 12.9728 29.3008 12.9728 28.4306C12.9729 27.5604 12.2675 26.855 11.3973 26.855Z" fill="#25A1D3"/>
<path d="M15.021 20.6575H1.57559C0.705371 20.6575 0 21.3628 0 22.2332C0 23.1035 0.705371 23.8087 1.57559 23.8087H15.021C15.8913 23.8087 16.5966 23.1034 16.5966 22.2332C16.5966 21.3629 15.8913 20.6575 15.021 20.6575Z" fill="#25A1D3"/>
<path d="M17.5947 14.46H4.14932C3.279 14.46 2.57373 15.1653 2.57373 16.0355C2.57373 16.9059 3.2791 17.6111 4.14932 17.6111H17.5947C18.465 17.6111 19.1703 16.9058 19.1703 16.0355C19.1704 15.1653 18.465 14.46 17.5947 14.46Z" fill="#25A1D3"/>
</svg>
