<svg width="50" height="50" viewBox="0 0 50 50" fill="none" xmlns="http://www.w3.org/2000/svg">
<g clip-path="url(#clip0)">
<path d="M25.0002 0C14.9215 0 6.72266 8.19893 6.72266 18.2775V20.2602H10.4401V18.2775C10.4401 10.249 16.9718 3.71748 25.0002 3.71748C33.0286 3.71748 39.5602 10.2491 39.5602 18.2775V20.2602H43.2777V18.2775C43.2777 8.19893 35.0783 0 25.0002 0Z" fill="#25A1D3"/>
<path d="M11.1838 18.4014H6.59893C3.3877 18.4014 0.774902 21.0142 0.774902 24.2254V32.7136C0.774902 35.9248 3.3877 38.5376 6.59893 38.5376H11.1838C12.2105 38.5376 13.0425 37.7055 13.0425 36.6789V20.2602C13.0426 19.2335 12.2105 18.4014 11.1838 18.4014ZM9.3251 34.8202H6.59893C5.41797 34.8202 4.49238 33.8952 4.49238 32.7137V24.2255C4.49238 23.0445 5.41807 22.1189 6.59893 22.1189H9.3251V34.8202Z" fill="#25A1D3"/>
<path d="M43.401 18.4014H38.8167C37.79 18.4014 36.958 19.2335 36.958 20.2601V36.6789C36.958 37.7056 37.7901 38.5376 38.8167 38.5376H43.4016C46.6128 38.5376 49.2256 35.9248 49.225 32.7136V24.2254C49.225 21.0142 46.6129 18.4014 43.401 18.4014ZM45.5075 32.7137C45.5075 33.8952 44.5825 34.8202 43.401 34.8202H40.6755V22.1188H43.401C44.5825 22.1188 45.5075 23.0445 45.5075 24.2254V32.7137Z" fill="#25A1D3"/>
<path d="M40.8623 36.6792C40.8623 39.2759 38.7495 41.388 36.1529 41.388H31.1963V45.1055H36.1529C40.7991 45.1055 44.5792 41.3254 44.5798 36.6792H40.8623Z" fill="#25A1D3"/>
<path d="M32.9925 43.2045C32.9695 39.5007 29.9485 36.4939 26.2391 36.4939C22.516 36.4939 19.4863 39.523 19.4863 43.2467C19.4863 46.9705 22.5438 50.0001 26.3017 50.0001C28.1573 50.0001 29.9448 49.2435 31.205 47.9239C32.428 46.6444 33.0612 44.9703 32.9925 43.2045ZM28.5185 45.3544C27.9553 45.9437 27.1474 46.282 26.3022 46.282C24.6231 46.282 23.2044 44.8917 23.2044 43.246C23.2044 41.5726 24.5656 40.2107 26.2397 40.2107C27.9139 40.2107 29.2757 41.5732 29.2763 43.2454C29.2763 43.2739 29.2769 43.3017 29.2781 43.3302C29.3121 44.0868 29.0427 44.8061 28.5185 45.3544Z" fill="#25A1D3"/>
</g>
<defs>
<clipPath id="clip0">
<rect width="50" height="50" fill="white"/>
</clipPath>
</defs>
</svg>
