<svg width="50" height="50" viewBox="0 0 50 50" fill="none" xmlns="http://www.w3.org/2000/svg">
<path d="M49.4901 38.8509L46.6053 30.3994C47.9959 27.5378 48.7307 24.3554 48.7357 21.1534C48.7442 15.5857 46.6044 10.3213 42.7102 6.33009C38.8152 2.33809 33.625 0.0909156 28.0955 0.00273183C22.3617 -0.0884793 16.9722 2.10703 12.9204 6.18575C9.01348 10.1187 6.84647 15.3035 6.77789 20.8442C2.92718 23.7627 0.654343 28.313 0.661813 33.1733C0.665402 35.4477 1.17393 37.7086 2.13752 39.753L0.150474 45.5741C-0.191097 46.5748 0.0584122 47.6613 0.801701 48.4096C1.32478 48.9362 2.01442 49.2166 2.72366 49.2166C3.02206 49.2166 3.32395 49.167 3.61838 49.0651L9.40103 47.0648C11.4319 48.0349 13.6778 48.5468 15.9372 48.5504C15.9453 48.5504 15.9531 48.5504 15.9612 48.5504C20.8612 48.5502 25.4158 46.2032 28.3044 42.2318C31.3105 42.1521 34.2847 41.4196 36.9735 40.0955L45.3691 42.9996C45.7189 43.1206 46.0777 43.1796 46.4323 43.1796C47.2751 43.1796 48.0946 42.8464 48.7163 42.2204C49.5995 41.3312 49.896 40.0401 49.4901 38.8509ZM15.961 45.5742C15.9547 45.5742 15.948 45.5742 15.9417 45.5742C13.942 45.5712 11.9561 45.0749 10.1991 44.1391C9.83786 43.9469 9.41374 43.9136 9.02744 44.0472L3.09792 46.0982L5.13542 40.1293C5.26812 39.7403 5.23514 39.3134 5.04403 38.9498C4.11448 37.181 3.62148 35.182 3.61838 33.1688C3.61343 29.9306 4.86476 26.8614 7.05301 24.5631C7.76777 28.9495 9.84446 32.9915 13.0634 36.1743C16.2586 39.3336 20.275 41.3451 24.6087 42.0027C22.3204 44.2731 19.2359 45.5742 15.961 45.5742ZM46.6256 40.1159C46.5415 40.2006 46.4418 40.2236 46.3296 40.1847L37.3419 37.0758C37.1858 37.0217 37.0234 36.995 36.8616 36.995C36.623 36.995 36.3853 37.0531 36.1703 37.1677C33.6041 38.5343 30.7043 39.2592 27.7841 39.2636C27.7745 39.2636 27.7657 39.2636 27.7561 39.2636C17.9714 39.2636 9.88928 31.2623 9.73426 21.4147C9.65617 16.4552 11.5302 11.7942 15.011 8.29015C18.4918 4.78614 23.1228 2.9003 28.0487 2.97842C37.8405 3.13477 45.7943 11.2859 45.7792 21.1487C45.7746 24.0883 45.0547 27.0076 43.6973 29.5907C43.5061 29.9543 43.4732 30.3812 43.6059 30.7702L46.6942 39.8178C46.7327 39.9311 46.7096 40.0314 46.6256 40.1159Z" fill="#25A1D3"/>
<path d="M36.5625 13.2324H18.9494C18.133 13.2324 17.4712 13.8987 17.4712 14.7205C17.4712 15.5424 18.1331 16.2086 18.9494 16.2086H36.5625C37.3789 16.2086 38.0407 15.5423 38.0407 14.7205C38.0407 13.8987 37.3789 13.2324 36.5625 13.2324Z" fill="#25A1D3"/>
<path d="M36.5625 19.3528H18.9494C18.133 19.3528 17.4712 20.0191 17.4712 20.8409C17.4712 21.6626 18.1331 22.329 18.9494 22.329H36.5625C37.3789 22.329 38.0407 21.6626 38.0407 20.8409C38.0407 20.0191 37.3789 19.3528 36.5625 19.3528Z" fill="#25A1D3"/>
<path d="M29.7828 25.4727H18.9494C18.133 25.4727 17.4712 26.139 17.4712 26.9607C17.4712 27.7826 18.1331 28.4488 18.9494 28.4488H29.7827C30.5991 28.4488 31.2609 27.7825 31.2609 26.9607C31.2609 26.139 30.5992 25.4727 29.7828 25.4727Z" fill="#25A1D3"/>
</svg>
