<svg width="50" height="50" viewBox="0 0 50 50" fill="none" xmlns="http://www.w3.org/2000/svg">
<path d="M37.7635 30.0588C34.2882 30.0588 31.4609 32.886 31.4609 36.3613C31.4609 39.8366 34.2882 42.6639 37.7635 42.6639C41.2394 42.6639 44.066 39.8366 44.066 36.3613C44.066 32.886 41.2388 30.0588 37.7635 30.0588ZM37.7635 39.5126C36.0256 39.5126 34.6122 38.0992 34.6122 36.3613C34.6122 34.6234 36.0256 33.21 37.7635 33.21C39.5014 33.21 40.9147 34.6234 40.9147 36.3613C40.9147 38.0993 39.5014 39.5126 37.7635 39.5126Z" fill="#25A1D3"/>
<path d="M16.2283 30.0588C12.753 30.0588 9.92578 32.886 9.92578 36.3613C9.92578 39.8366 12.753 42.6639 16.2283 42.6639C19.7036 42.6639 22.5309 39.8366 22.5309 36.3613C22.5309 32.886 19.7036 30.0588 16.2283 30.0588ZM16.2283 39.5126C14.4904 39.5126 13.0771 38.0992 13.0771 36.3613C13.0771 34.6234 14.4904 33.21 16.2283 33.21C17.9657 33.21 19.3796 34.6234 19.3796 36.3613C19.3796 38.0993 17.9662 39.5126 16.2283 39.5126Z" fill="#25A1D3"/>
<path d="M42.0072 12.019C41.7394 11.4869 41.1947 11.1513 40.5991 11.1513H32.3008V14.3025H39.6274L43.9179 22.8361L46.7341 21.4201L42.0072 12.019Z" fill="#25A1D3"/>
<path d="M33.0355 34.8383H21.1133V37.9896H33.0355V34.8383Z" fill="#25A1D3"/>
<path d="M11.5025 34.8383H6.04043C5.17012 34.8383 4.46484 35.5437 4.46484 36.4139C4.46484 37.2842 5.17021 37.9895 6.04043 37.9895H11.5026C12.373 37.9895 13.0782 37.2841 13.0782 36.4139C13.0782 35.5436 12.3729 34.8383 11.5025 34.8383Z" fill="#25A1D3"/>
<path d="M49.6696 25.2059L46.5704 21.2143C46.2727 20.8298 45.8131 20.605 45.3262 20.605H33.8766V9.57559C33.8766 8.70527 33.1712 8 32.301 8H6.04043C5.17012 8 4.46484 8.70537 4.46484 9.57559C4.46484 10.4458 5.17021 11.1512 6.04043 11.1512H30.7253V22.1806C30.7253 23.0509 31.4307 23.7561 32.3009 23.7561H44.5546L46.8492 26.712V34.8381H42.4899C41.6196 34.8381 40.9144 35.5435 40.9144 36.4137C40.9144 37.284 41.6197 37.9893 42.4899 37.9893H48.4248C49.2951 37.9893 50.0004 37.2839 50.0005 36.4137V26.1723C50.0005 25.8225 49.8839 25.4821 49.6696 25.2059Z" fill="#25A1D3"/>
<path d="M11.3978 26.8551H4.1498C3.27949 26.8551 2.57422 27.5604 2.57422 28.4307C2.57422 29.301 3.27959 30.0062 4.1498 30.0062H11.3977C12.268 30.0062 12.9732 29.3009 12.9732 28.4307C12.9733 27.5604 12.268 26.8551 11.3978 26.8551Z" fill="#25A1D3"/>
<path d="M15.021 20.6575H1.57559C0.705371 20.6575 0 21.3629 0 22.2332C0 23.1035 0.705371 23.8088 1.57559 23.8088H15.021C15.8913 23.8088 16.5966 23.1034 16.5966 22.2332C16.5966 21.363 15.8913 20.6575 15.021 20.6575Z" fill="#25A1D3"/>
<path d="M17.5952 14.4601H4.14981C3.27949 14.4601 2.57422 15.1654 2.57422 16.0356C2.57422 16.9059 3.27959 17.6112 4.14981 17.6112H17.5952C18.4655 17.6112 19.1708 16.9059 19.1708 16.0356C19.1709 15.1654 18.4655 14.4601 17.5952 14.4601Z" fill="#25A1D3"/>
</svg>
