<svg width="73" height="17" viewBox="0 0 73 17" fill="none" xmlns="http://www.w3.org/2000/svg">
<g clip-path="url(#clip0)">
<path fill-rule="evenodd" clip-rule="evenodd" d="M3.59138 5.43384C3.31415 5.35781 3.59138 5.43384 3.349 5.32869C2.70468 5.05277 2.01013 4.92041 1.31172 4.94045C1.26736 5.17663 1.26736 5.12001 1.3735 5.29472C1.74896 5.90296 1.98976 6.10355 2.46502 6.51282C2.5562 6.60884 2.6559 6.69603 2.76285 6.77326C3.02789 6.95578 3.33983 7.05427 3.65951 7.05635C3.5502 7.21812 3.57713 7.12915 3.52168 7.33783H3.38385C3.18108 6.76356 1.11211 6.56944 0.552886 6.85253C0.668533 7.2893 1.26736 7.69371 1.55885 7.92666C1.74396 8.09984 1.95527 8.24133 2.18461 8.34563C2.43475 8.46335 2.69812 8.5492 2.96879 8.60122V8.81313C2.72934 8.73348 2.48249 8.67928 2.23214 8.65137C1.26736 8.5624 0.613086 8.95387 0 9.09946C0.023763 9.38255 -0.0427734 9.22079 0.121984 9.39873C0.47526 9.76755 1.81233 10.2286 2.55532 10.2286C2.32402 10.6767 1.0329 11.1393 0.828537 11.9207C1.19132 12.0986 1.67608 12.0711 2.0959 12.0129L3.14147 11.9514C2.43809 12.406 0.383377 14.3294 2.66621 13.7308L3.93357 13.3345C3.73003 13.6358 3.564 13.9619 3.4393 14.3051C3.38227 14.4669 3.06068 15.363 3.26504 15.4714C3.43772 15.5653 4.08724 15.1479 4.22665 15.0379L5.10747 14.3908C4.99182 14.8972 4.6623 15.7448 4.76211 16.2236C5.44807 16.2236 6.59661 14.9877 6.76454 14.2501C6.97049 14.4022 6.82791 14.2501 6.86435 14.4119C6.91504 14.6497 6.86435 15.8208 7.24772 16.5698C7.64219 16.3579 7.74675 16.1331 8.04933 15.6251C8.32181 15.1689 8.42161 14.8729 8.42161 14.1692L8.46439 14.2679C8.67033 14.7855 9.32303 15.672 9.62244 15.9066C10.5856 16.6636 10.1706 15.2805 10.0803 14.1692C10.3971 14.2857 11.1528 15.2272 12.013 15.2272C11.9956 14.4022 11.5377 13.671 11.2542 13.1129C11.392 13.1452 14.1754 14.1126 13.472 13.1129L13.0063 12.592C12.6594 12.2086 12.1397 11.6085 11.5979 11.5632V11.4224C12.1809 11.5615 13.358 12.0905 14.2911 11.6327C14.1438 10.9857 12.8922 10.3742 12.5643 10.083C13.3152 10.0183 14.3608 9.27417 14.497 9.23696V9.0299C14.2008 8.95872 13.9204 8.79049 13.5703 8.70637C13.2163 8.62258 12.8568 8.56527 12.4946 8.5349C12.7798 8.28254 13.8697 7.68077 14.0138 7.1243C13.754 7.06283 13.7128 6.99812 13.3944 6.98194C13.1269 6.96604 12.8584 6.97633 12.5928 7.01268C12.032 7.09356 11.7373 7.13238 11.3255 7.33621C11.4522 6.97871 11.6423 7.26342 12.4487 6.43679C12.7243 6.15208 13.2408 5.69914 13.3279 5.29149C12.7433 5.00516 11.4348 5.4031 10.9801 5.7137C11.0926 5.2284 11.7405 4.29339 11.7405 3.52824C10.9136 3.52824 10.4462 4.1478 9.80621 4.58619C9.80621 3.62368 9.98681 3.97633 9.87591 2.61264C9.34837 2.62396 9.12342 3.09794 8.8541 3.40368C8.62877 3.63435 8.45195 3.90958 8.33448 4.21251L8.14913 4.51501C8.14913 3.81456 7.94002 3.50559 7.73566 3.03323C7.57724 2.6822 7.31426 2.08852 6.90553 1.97852C6.7423 2.72266 6.64893 3.481 6.62672 4.24324C6.62672 4.6428 6.69167 4.78354 6.698 5.08766C6.12452 5.0359 7.04178 5.15075 5.99462 3.55088L5.20252 2.59808C5.03301 2.42661 5.06944 2.40881 4.76528 2.40234C4.76528 2.75014 4.6623 2.98955 4.69874 3.45706C4.72409 3.75956 4.82706 4.13648 4.8334 4.44707C4.64963 4.32089 3.22068 2.97338 2.90067 3.3147C2.69314 3.54441 3.54386 5.2559 3.59138 5.43384Z" fill="white"/>
<path fill-rule="evenodd" clip-rule="evenodd" d="M6.1956 5.41741C6.03718 5.25565 6.1956 5.41741 6.06728 5.25565C5.7219 4.82269 5.28976 4.47024 4.79992 4.22196C4.68427 4.3627 4.70328 4.32711 4.71437 4.48887C4.74264 4.92223 4.8501 5.34635 5.03121 5.73933C5.0588 5.83985 5.09594 5.93737 5.14211 6.03051C5.25954 6.25611 5.43907 6.44168 5.65856 6.56434C5.52232 6.63875 5.57459 6.58375 5.46212 6.70669L5.36706 6.65492C5.4336 6.18257 4.07752 5.27021 3.59276 5.24756C3.51196 5.59859 3.77653 6.10168 3.89376 6.37992C3.95897 6.56891 4.05366 6.7459 4.17416 6.90404C4.30367 7.08002 4.45429 7.23871 4.62249 7.3764L4.54645 7.52199C4.41008 7.3765 4.25931 7.24585 4.09653 7.13213C3.46285 6.70669 2.87195 6.72934 2.39669 6.59831C2.30956 6.80375 2.32223 6.66948 2.37292 6.85066C2.48223 7.23728 3.2379 8.05905 3.75118 8.33891C3.43434 8.55891 2.37292 8.39391 1.94994 8.85494C2.13529 9.11539 2.47906 9.27877 2.78798 9.39524L3.53097 9.74628C2.88304 9.79481 0.769712 10.348 2.56461 10.7929L3.58167 11C3.33228 11.1321 3.09977 11.2951 2.88937 11.4853C2.78957 11.5775 2.24619 12.0725 2.34758 12.2245C2.44896 12.3766 3.0272 12.3167 3.16661 12.2876L4.0094 12.1695C3.74643 12.4753 3.2173 12.9347 3.10958 13.3019C3.58484 13.5607 4.82051 13.1401 5.20389 12.6953C5.29102 12.8765 5.24825 12.7163 5.20389 12.857C5.15161 13.0398 4.69219 13.8276 4.68903 14.4893C5.03755 14.4893 5.18963 14.376 5.58252 14.1398C5.93437 13.947 6.21231 13.6387 6.37145 13.2647V13.3472C6.34745 13.8777 6.41776 14.4082 6.57898 14.9131C6.97028 15.7996 7.18256 14.6882 7.52158 13.8875C7.69584 14.0881 7.87961 15.0199 8.4721 15.3434C8.75884 14.7691 8.70973 14.0929 8.7129 13.5995C8.79528 13.674 10.3668 15.3903 10.2448 14.4343L10.1038 13.9118C10.004 13.517 9.86144 12.9072 9.505 12.671L9.55569 12.5739C9.90738 12.8975 10.5284 13.7063 11.3363 13.7338C11.4678 13.2356 10.8278 12.3394 10.7027 12.0142C11.2429 12.2537 12.2346 12.1339 12.3423 12.1598L12.4183 12.0126C12.2393 11.8509 12.1015 11.6309 11.8956 11.4416C11.6816 11.251 11.4545 11.0764 11.2159 10.9191C11.5058 10.8382 12.4754 10.8382 12.7764 10.5147C12.6655 10.3877 12.5387 10.2762 12.3993 10.183C12.2202 10.0718 12.0314 9.97761 11.8354 9.90157C11.4187 9.74789 11.2017 9.66216 10.8421 9.6476C11.0575 9.44863 11.0908 9.71877 11.9399 9.45024C12.2346 9.35642 12.7494 9.23671 12.9617 8.99083C12.6607 8.57347 11.6152 8.35509 11.189 8.39876C11.4456 8.10111 12.2267 7.70479 12.5023 7.17743C11.932 6.86684 11.3934 7.11757 10.7866 7.17743C11.1351 6.51257 11.132 6.82478 11.5486 5.84124C11.1795 5.65197 10.8563 5.88815 10.5585 6.00301C10.3195 6.07706 10.0979 6.20039 9.90739 6.36536L9.66342 6.50286C9.91689 6.01757 9.88521 5.728 9.91372 5.32521C9.9359 5.02594 9.96442 4.51638 9.72362 4.28505C9.34265 4.7361 9.00524 5.22366 8.71607 5.74095C8.5719 6.01595 8.55765 6.13727 8.45943 6.3508C8.08239 6.09845 8.67329 6.52228 8.52913 5.02432L8.32635 4.0699C8.27883 3.88225 8.30576 3.88225 8.09981 3.76902C7.96832 4.00681 7.81782 4.13461 7.67366 4.47108C7.58178 4.69108 7.51524 4.98873 7.4091 5.2055C7.32831 5.04373 6.82928 3.58784 6.48393 3.69946C6.25739 3.7771 6.22729 5.27829 6.1956 5.41741Z" fill="#25A1D3"/>
<path fill-rule="evenodd" clip-rule="evenodd" d="M7.20492 6.1133C7.86977 6.11554 8.51905 6.31894 9.07074 6.69781C9.62244 7.07667 10.0518 7.61401 10.3045 8.24192C10.5573 8.86984 10.6222 9.56017 10.4909 10.2257C10.3596 10.8912 10.0381 11.5021 9.56697 11.9811C9.09586 12.4602 8.49627 12.7859 7.84396 12.9171C7.19164 13.0483 6.51587 12.9792 5.90202 12.7184C5.28817 12.4577 4.76377 12.017 4.39508 11.452C4.02639 10.8871 3.82995 10.2233 3.83057 9.54436C3.83098 9.09268 3.91865 8.64552 4.08855 8.22849C4.25845 7.81145 4.50724 7.43274 4.82068 7.11403C5.13412 6.79532 5.50606 6.54287 5.91518 6.37115C6.3243 6.19943 6.76258 6.11181 7.20492 6.1133Z" fill="white"/>
<path fill-rule="evenodd" clip-rule="evenodd" d="M22.6542 9.03462V10.5245H17.6323V2.50089H22.4673V3.99075H19.4098V5.6618H22.3105V7.11769H19.4098V9.03462H22.6542ZM26.968 10.5245H25.189L23.1295 4.6912H25.0305L25.8147 7.40402C25.9459 7.86894 26.0517 8.34095 26.1316 8.81785H26.1838C26.2631 8.34064 26.3676 7.90064 26.5007 7.40402L27.2262 4.6912H29.0814L26.9649 10.5148L26.968 10.5245ZM32.9009 6.24577C32.2482 6.24577 31.803 6.60813 31.6984 7.16137C31.6675 7.29289 31.65 7.42733 31.6462 7.56255V10.5245H29.8655V6.60813C29.8655 5.76856 29.8655 5.19429 29.8402 4.69767H31.3563L31.4085 5.76856H31.4608C31.5642 5.42973 31.768 5.132 32.0441 4.91644C32.3201 4.70087 32.6549 4.57809 33.0022 4.56502C33.1245 4.56139 33.2468 4.56733 33.3682 4.58282V6.30886C33.213 6.26796 33.0531 6.24892 32.8929 6.25224L32.9009 6.24577ZM36.874 10.6571C35.2011 10.6571 33.9211 9.52477 33.9211 7.65799C33.9211 5.79121 35.1235 4.56502 36.9786 4.56502C38.7054 4.56502 39.8809 5.78636 39.8809 7.54475C39.8809 9.6833 38.3901 10.6571 36.8709 10.6571H36.874ZM36.9263 5.864C36.0645 5.864 35.7508 6.74239 35.7508 7.60137C35.7508 8.61403 36.1691 9.35815 36.9263 9.35815C37.6059 9.35815 38.0511 8.65123 38.0511 7.60137C38.0511 6.74239 37.7105 5.864 36.9263 5.864ZM44.3245 10.6571C43.6449 10.6571 43.0176 10.4096 42.5993 9.70271H42.574L42.4948 10.5245H41.0056C41.031 10.1411 41.0579 9.4358 41.0579 8.7855V2.0625H42.8053V5.38518H42.8322C43.1712 4.88855 43.7732 4.56502 44.5574 4.56502C45.942 4.56502 46.9337 5.72974 46.91 7.50593C46.91 9.60889 45.6283 10.6571 44.3214 10.6571H44.3245ZM43.9063 5.96592C43.6571 5.96845 43.4165 6.05941 43.2257 6.22321C43.035 6.387 42.9059 6.61344 42.8607 6.86372C42.8309 6.96909 42.8134 7.07768 42.8085 7.18725V8.04784C42.8121 8.15755 42.8296 8.26631 42.8607 8.37138C42.9106 8.6162 43.042 8.8358 43.2327 8.99273C43.4234 9.14966 43.6614 9.23421 43.9063 9.23197C44.6651 9.23197 45.1087 8.63991 45.1087 7.58843C45.1087 6.69063 44.7174 5.97077 43.9063 5.97077V5.96592ZM51.2491 10.5245L51.1445 9.93242H51.1192C50.9151 10.1713 50.6611 10.3604 50.376 10.4858C50.0908 10.6112 49.7818 10.6698 49.4716 10.6571C48.3215 10.6571 47.6419 9.79815 47.6419 8.86153C47.6419 7.35387 48.9742 6.62754 50.9877 6.64695V6.55151C50.9877 6.24577 50.8039 5.80577 49.9421 5.80577C49.3914 5.81548 48.852 5.96681 48.3738 6.24577L48.0332 5.07944C48.7209 4.7275 49.4819 4.55099 50.251 4.56502C52.1521 4.56502 52.7604 5.71033 52.7604 7.08534V9.11065C52.7539 9.58325 52.7804 10.0557 52.8396 10.5245H51.2491ZM51.04 7.77446C50.0989 7.75667 49.3924 7.98476 49.3924 8.69167C49.3864 8.78423 49.4001 8.87701 49.4323 8.96372C49.4645 9.05043 49.5147 9.12905 49.5793 9.19426C49.6439 9.25946 49.7214 9.30971 49.8067 9.34162C49.892 9.37353 49.983 9.38634 50.0736 9.37918C50.2776 9.37609 50.476 9.31063 50.6431 9.19125C50.8103 9.07187 50.9386 8.90405 51.0115 8.70947C51.0333 8.60917 51.0418 8.50634 51.0368 8.40373V7.77284L51.04 7.77446ZM54.1513 10.5245V2.0625H55.9225V10.5245H54.1513ZM57.3926 10.5245V2.0625H59.1701V10.5245H57.3926ZM63.2542 10.6571C61.6082 10.6571 60.3266 9.52477 60.3266 7.65799C60.3266 5.79121 61.529 4.56502 63.3587 4.56502C65.1108 4.56502 66.261 5.78636 66.261 7.54475C66.261 9.6833 64.7972 10.6571 63.251 10.6571H63.2542ZM63.3064 5.864C62.47 5.864 62.1563 6.74239 62.1563 7.60137C62.1563 8.61403 62.5476 9.35815 63.3064 9.35815C64.013 9.35815 64.4312 8.65123 64.4312 7.60137C64.4312 6.74239 64.1144 5.864 63.3064 5.864ZM71.069 10.5245V7.28916C71.069 6.54504 70.833 6.029 70.1803 6.029C69.9812 6.02653 69.7867 6.09041 69.6263 6.21097C69.4659 6.33153 69.3484 6.5022 69.2916 6.6971C69.2352 6.84268 69.2082 6.9984 69.2123 7.1549V10.5245H67.4301V6.55151C67.4301 5.82518 67.4048 5.2137 67.3778 4.69767H68.9209L68.9985 5.5065H69.0508C69.245 5.21559 69.5066 4.97807 69.8122 4.81499C70.1178 4.6519 70.4581 4.56826 70.8029 4.57149C71.9784 4.57149 72.8418 5.35444 72.8418 7.0724V10.5245H71.069Z" fill="white"/>
<path fill-rule="evenodd" clip-rule="evenodd" d="M17.6895 11.7686H19.4717V12.1762H18.1457V12.7553H18.8317C18.946 12.749 19.0604 12.7671 19.1676 12.8083C19.2747 12.8495 19.3724 12.913 19.4543 12.9947C19.6008 13.1543 19.6824 13.3648 19.6824 13.5836C19.6824 13.8023 19.6008 14.0129 19.4543 14.1724C19.3721 14.2536 19.2744 14.3167 19.1672 14.3576C19.0601 14.3985 18.9459 14.4164 18.8317 14.4102H17.6895V11.7686ZM18.7699 13.163H18.1457V14.0025H18.7699C18.8858 14.006 18.9989 13.9651 19.0867 13.8877C19.1264 13.8479 19.158 13.8005 19.1795 13.7481C19.201 13.6958 19.2121 13.6395 19.2121 13.5828C19.2121 13.526 19.201 13.4698 19.1795 13.4174C19.158 13.365 19.1264 13.3176 19.0867 13.2778C18.9989 13.2005 18.8858 13.1595 18.7699 13.163ZM20.9181 14.4571C20.7878 14.4615 20.658 14.4392 20.5363 14.3914C20.4147 14.3436 20.3037 14.2713 20.2099 14.1789C20.1171 14.0839 20.0445 13.9704 19.9968 13.8454C19.949 13.7204 19.9272 13.5866 19.9327 13.4525C19.9269 13.1883 20.0237 12.9324 20.202 12.7408C20.2896 12.6458 20.3958 12.5708 20.5137 12.5206C20.6317 12.4704 20.7587 12.4462 20.8864 12.4496C21.0128 12.4448 21.1387 12.4686 21.255 12.5192C21.3714 12.5698 21.4754 12.646 21.5597 12.7424C21.7346 12.95 21.8257 13.2177 21.8147 13.4914V13.5884H20.3604C20.3735 13.7331 20.439 13.8675 20.5442 13.9653C20.6587 14.0688 20.8081 14.1227 20.9608 14.1158C21.0604 14.1155 21.1592 14.0968 21.2523 14.0608C21.3436 14.0254 21.4264 13.9702 21.4947 13.899L21.6832 14.1724C21.5795 14.2696 21.4578 14.3448 21.3254 14.3937C21.193 14.4425 21.0524 14.4641 20.9117 14.4571H20.9181ZM21.4171 13.2972C21.4127 13.166 21.3621 13.0408 21.2745 12.9446C21.2254 12.8901 21.1652 12.8474 21.0981 12.8195C21.031 12.7915 20.9587 12.779 20.8864 12.7828C20.8165 12.7788 20.7466 12.7903 20.6815 12.8165C20.6164 12.8428 20.5576 12.8832 20.5093 12.9349C20.4175 13.0304 20.3614 13.1558 20.3509 13.2892L21.4171 13.2972ZM22.8999 14.4571C22.7427 14.4667 22.5853 14.4445 22.4366 14.3918C22.2878 14.339 22.1508 14.2568 22.0333 14.1497L22.225 13.8828C22.4127 14.0456 22.6539 14.1294 22.8999 14.1174C23.0158 14.1236 23.1314 14.0997 23.2357 14.0478C23.2718 14.032 23.3027 14.0059 23.3246 13.9726C23.3465 13.9393 23.3585 13.9003 23.3593 13.8602C23.3593 13.6984 23.2009 13.6111 22.8635 13.6111H22.4627V13.2778H22.8635C22.9792 13.2836 23.0947 13.262 23.2009 13.2147C23.2373 13.1999 23.2686 13.1742 23.2906 13.1411C23.3126 13.1079 23.3244 13.0688 23.3245 13.0287C23.3217 12.9905 23.3081 12.9539 23.2853 12.9235C23.2625 12.893 23.2315 12.87 23.1961 12.8572C23.0967 12.8113 22.9884 12.7886 22.8793 12.7909C22.7687 12.7854 22.6581 12.8029 22.5544 12.8424C22.4506 12.8819 22.3558 12.9425 22.2757 13.0206L22.0729 12.7666C22.1765 12.6613 22.3004 12.5791 22.4368 12.5253C22.5732 12.4716 22.719 12.4474 22.865 12.4544C23.0921 12.4398 23.3189 12.4867 23.5225 12.5903C23.5934 12.6246 23.6535 12.6786 23.6958 12.7461C23.7381 12.8136 23.7609 12.8919 23.7617 12.9721C23.7621 13.0318 23.7487 13.0908 23.7226 13.1442C23.6964 13.1976 23.6582 13.244 23.6112 13.2794C23.5114 13.3626 23.3906 13.4153 23.2627 13.4315C23.3953 13.4428 23.5226 13.4897 23.6318 13.5674C23.6848 13.602 23.7282 13.6499 23.7579 13.7066C23.7876 13.7632 23.8025 13.8267 23.8013 13.8909C23.8001 13.9748 23.7771 14.0568 23.7348 14.1286C23.6926 14.2005 23.6324 14.2597 23.5605 14.3002C23.3641 14.4164 23.1393 14.4725 22.9126 14.462L22.8999 14.4571ZM25.0512 14.4571C24.9208 14.4626 24.7907 14.4396 24.6697 14.3897C24.5487 14.3398 24.4395 14.264 24.3494 14.1675C24.1789 13.9704 24.0848 13.7164 24.0848 13.4533C24.0848 13.1903 24.1789 12.9363 24.3494 12.7392C24.5386 12.5532 24.791 12.4493 25.0536 12.4493C25.3162 12.4493 25.5686 12.5532 25.7578 12.7392C25.9284 12.9366 26.0226 13.1908 26.0226 13.4542C26.0226 13.7175 25.9284 13.9717 25.7578 14.1692C25.6669 14.2657 25.5568 14.3414 25.435 14.391C25.3131 14.4407 25.1823 14.4632 25.0512 14.4571ZM25.0512 14.0899C25.1268 14.0942 25.2023 14.0804 25.2716 14.0495C25.3409 14.0186 25.4022 13.9715 25.4505 13.912C25.5461 13.7817 25.5978 13.6234 25.5978 13.4606C25.5978 13.2979 25.5461 13.1395 25.4505 13.0093C25.4009 12.9518 25.34 12.9058 25.2717 12.8743C25.2034 12.8428 25.1294 12.8265 25.0544 12.8265C24.9795 12.8265 24.9054 12.8428 24.8371 12.8743C24.7688 12.9058 24.7079 12.9518 24.6584 13.0093C24.5637 13.1399 24.5126 13.2981 24.5126 13.4606C24.5126 13.6231 24.5637 13.7813 24.6584 13.912C24.7056 13.9722 24.7661 14.0202 24.8349 14.0523C24.9037 14.0843 24.9789 14.0994 25.0544 14.0964L25.0512 14.0899ZM28.1198 14.4134H27.7111V12.8621H26.8446V14.4102H26.4358V12.4981H28.1198V14.4102V14.4134ZM30.211 14.4134H29.8007V14.2047C29.7238 14.29 29.6293 14.3568 29.5242 14.4005C29.419 14.4441 29.3057 14.4634 29.1923 14.4571C29.0261 14.461 28.8642 14.4036 28.7361 14.2953C28.6702 14.2389 28.6179 14.1676 28.5836 14.087C28.5492 14.0064 28.5336 13.9188 28.5381 13.8311C28.5326 13.7433 28.5475 13.6555 28.5816 13.5748C28.6158 13.4941 28.6682 13.4228 28.7345 13.3668C28.8643 13.2606 29.026 13.2034 29.1923 13.205C29.3053 13.1971 29.4185 13.215 29.5238 13.2576C29.6291 13.3001 29.7237 13.3662 29.8007 13.4509V13.163C29.8029 13.1126 29.7932 13.0624 29.7722 13.0167C29.7512 12.9711 29.7197 12.9313 29.6803 12.9009C29.5877 12.8348 29.4763 12.8018 29.3634 12.8071C29.2594 12.8068 29.1563 12.828 29.0605 12.8694C28.9647 12.9108 28.878 12.9716 28.8058 13.0481L28.6379 12.7586C28.8514 12.5525 29.1363 12.4414 29.43 12.4496C29.6308 12.4388 29.8295 12.4956 29.9955 12.6114C30.0711 12.6745 30.1306 12.7556 30.1687 12.8475C30.2067 12.9393 30.2224 13.0393 30.2142 13.1387V14.4053L30.211 14.4134ZM29.3523 14.1756C29.4372 14.183 29.5226 14.1689 29.6008 14.1345C29.679 14.1 29.7477 14.0464 29.8007 13.9783V13.6855C29.7479 13.6172 29.6792 13.5633 29.601 13.5289C29.5227 13.4944 29.4372 13.4804 29.3523 13.4881C29.2484 13.4836 29.1463 13.5169 29.064 13.582C29.0275 13.612 28.9984 13.6503 28.9789 13.6938C28.9593 13.7373 28.95 13.7849 28.9515 13.8327C28.95 13.8801 28.9594 13.9271 28.9789 13.9701C28.9984 14.0131 29.0276 14.0508 29.064 14.0802C29.1468 14.1441 29.2487 14.1767 29.3523 14.1724V14.1756ZM31.5987 14.4603C31.4679 14.4655 31.3375 14.4427 31.2158 14.3934C31.0942 14.3441 30.9839 14.2694 30.8922 14.174C30.7159 13.9772 30.6181 13.7201 30.6181 13.4533C30.6181 13.1866 30.7159 12.9295 30.8922 12.7327C30.9847 12.6391 31.0953 12.5661 31.217 12.5185C31.3386 12.4709 31.4686 12.4496 31.5987 12.4561C31.7363 12.4477 31.8737 12.4739 31.9991 12.5322C32.1245 12.5906 32.2339 12.6794 32.318 12.7909L32.0487 13.0433C32.0014 12.9712 31.9368 12.9127 31.8611 12.8733C31.7854 12.834 31.7011 12.8151 31.6162 12.8184C31.5399 12.8162 31.464 12.8308 31.3938 12.8612C31.3235 12.8916 31.2605 12.9372 31.209 12.9947C31.1012 13.1212 31.0445 13.2849 31.0506 13.4525C31.0452 13.6205 31.1018 13.7845 31.209 13.912C31.261 13.9706 31.325 14.017 31.3964 14.0477C31.4679 14.0785 31.545 14.0929 31.6225 14.0899C31.7073 14.0916 31.7912 14.0718 31.8667 14.0322C31.9421 13.9927 32.0068 13.9347 32.055 13.8634L32.3243 14.1174C32.2405 14.2299 32.131 14.3197 32.0053 14.379C31.8797 14.4382 31.7417 14.465 31.6035 14.4571L31.5987 14.4603ZM33.0879 14.4134H32.6792V12.4981H33.0879V13.2503H33.9529V12.4981H34.3632V14.4102H33.9529V13.6143H33.0879V14.4102V14.4134ZM34.8939 12.5014H35.3026V13.1937H35.9696C36.0549 13.1872 36.1406 13.1991 36.2211 13.2287C36.3016 13.2582 36.3751 13.3047 36.4369 13.3652C36.5441 13.483 36.6011 13.6396 36.5953 13.8003C36.5974 13.8807 36.5836 13.9606 36.5547 14.0354C36.5259 14.1101 36.4826 14.1782 36.4274 14.2355C36.3674 14.2959 36.2956 14.3428 36.2168 14.3731C36.1379 14.4035 36.0537 14.4167 35.9696 14.4118H34.8939V12.4981V12.5014ZM35.9189 13.5577H35.3026V14.043H35.9189C35.9531 14.0452 35.9875 14.0403 36.0199 14.0287C36.0523 14.017 36.0821 13.9987 36.1074 13.975C36.1512 13.9266 36.1756 13.8631 36.1756 13.7971C36.1756 13.7311 36.1512 13.6676 36.1074 13.6192C36.0821 13.5955 36.0523 13.5772 36.0199 13.5655C35.9875 13.5539 35.9531 13.549 35.9189 13.5512V13.5577ZM37.2876 14.4134H36.8773V12.4981H37.2876V14.4102V14.4134ZM38.6865 14.4603C38.5564 14.4649 38.4268 14.4426 38.3054 14.3948C38.184 14.347 38.0733 14.2747 37.9799 14.1821C37.8869 14.0867 37.8144 13.9725 37.7669 13.8469C37.7195 13.7213 37.6981 13.587 37.7043 13.4525C37.7014 13.3215 37.7238 13.1912 37.7703 13.0691C37.8168 12.947 37.8864 12.8354 37.9752 12.7408C38.0626 12.6473 38.1683 12.5737 38.2853 12.5247C38.4024 12.4756 38.5283 12.4522 38.6548 12.4561C38.7809 12.4514 38.9065 12.4753 39.0226 12.5259C39.1387 12.5765 39.2425 12.6526 39.3265 12.7489C39.5014 12.9565 39.5925 13.2242 39.5815 13.4978V13.5884H38.1272C38.1403 13.7331 38.2059 13.8675 38.311 13.9653C38.4255 14.0688 38.5749 14.1227 38.7277 14.1158C38.8273 14.1155 38.926 14.0968 39.0191 14.0608C39.1109 14.0255 39.1942 13.9703 39.2631 13.899L39.4469 14.1805C39.2376 14.3723 38.9625 14.4717 38.6817 14.4571L38.6865 14.4603ZM39.1855 13.3005C39.181 13.1696 39.131 13.0446 39.0445 12.9478C38.9952 12.8936 38.935 12.8511 38.8679 12.8232C38.8009 12.7952 38.7287 12.7826 38.6564 12.7861C38.5862 12.7819 38.516 12.7933 38.4507 12.8196C38.3853 12.8458 38.3263 12.8863 38.2777 12.9381C38.1871 13.0344 38.1312 13.1594 38.1193 13.2924L39.1855 13.3005ZM42.4188 12.5014V12.8653H41.4018V14.4134H40.9915V12.4981L42.4188 12.5014ZM44.3199 14.4134H43.9112V14.2047C43.8342 14.29 43.7398 14.3568 43.6347 14.4005C43.5295 14.4441 43.4162 14.4634 43.3028 14.4571C43.1366 14.4614 42.9744 14.404 42.8466 14.2953C42.7803 14.239 42.7278 14.1678 42.6932 14.0872C42.6586 14.0066 42.6427 13.919 42.647 13.8311C42.6419 13.7434 42.657 13.6557 42.6911 13.5751C42.7252 13.4944 42.7774 13.4231 42.8434 13.3668C42.9738 13.2606 43.136 13.2034 43.3028 13.205C43.4158 13.1971 43.529 13.215 43.6343 13.2576C43.7395 13.3001 43.8341 13.3662 43.9112 13.4509V13.163C43.9131 13.1125 43.903 13.0622 43.8818 13.0166C43.8605 12.971 43.8288 12.9313 43.7892 12.9009C43.6967 12.8347 43.5852 12.8017 43.4723 12.8071C43.3682 12.8066 43.2651 12.8277 43.1693 12.8691C43.0734 12.9106 42.9868 12.9715 42.9147 13.0481L42.7468 12.7586C42.9603 12.5525 43.2452 12.4414 43.5389 12.4496C43.7397 12.4388 43.9384 12.4956 44.1044 12.6114C44.18 12.6745 44.2395 12.7556 44.2776 12.8475C44.3156 12.9393 44.3313 13.0393 44.323 13.1387V14.4053L44.3199 14.4134ZM43.4628 14.1756C43.5477 14.1828 43.6329 14.1685 43.7111 14.1341C43.7893 14.0997 43.858 14.0462 43.9112 13.9783V13.6855C43.8583 13.6173 43.7896 13.5635 43.7114 13.5291C43.6331 13.4946 43.5477 13.4806 43.4628 13.4881C43.3584 13.4837 43.2558 13.5169 43.1729 13.582C43.1367 13.6122 43.1078 13.6506 43.0883 13.694C43.0688 13.7375 43.0593 13.7849 43.0604 13.8327C43.0593 13.88 43.0688 13.927 43.0883 13.9699C43.1078 14.0128 43.1368 14.0506 43.1729 14.0802C43.2563 14.1441 43.3587 14.1766 43.4628 14.1724V14.1756ZM45.5223 14.4603C45.3654 14.47 45.2081 14.4478 45.0597 14.3951C44.9112 14.3423 44.7745 14.26 44.6573 14.153L44.8474 13.8861C45.0354 14.0482 45.2764 14.132 45.5223 14.1206C45.6387 14.1266 45.7547 14.1027 45.8597 14.0511C45.8958 14.0352 45.9266 14.0091 45.9486 13.9758C45.9705 13.9425 45.9825 13.9035 45.9833 13.8634C45.9833 13.7017 45.817 13.6143 45.4874 13.6143H45.0851V13.2778H45.4874C45.6031 13.2832 45.7185 13.2616 45.8249 13.2147C45.8612 13.2018 45.8927 13.1777 45.915 13.1456C45.9373 13.1136 45.9493 13.0753 45.9493 13.036C45.9493 12.9967 45.9373 12.9584 45.915 12.9263C45.8927 12.8943 45.8612 12.8702 45.8249 12.8572C45.7256 12.8109 45.6172 12.7882 45.508 12.7909C45.3972 12.7855 45.2865 12.8031 45.1824 12.8426C45.0784 12.8821 44.9833 12.9426 44.9029 13.0206L44.7001 12.7666C44.8037 12.6614 44.9277 12.5793 45.064 12.5256C45.2004 12.4719 45.3462 12.4476 45.4922 12.4544C45.7187 12.44 45.9449 12.4869 46.148 12.5903C46.2192 12.6246 46.2794 12.6785 46.322 12.746C46.3646 12.8135 46.3877 12.8918 46.3888 12.9721C46.388 13.0324 46.3732 13.0917 46.3457 13.1451C46.3182 13.1985 46.2787 13.2446 46.2304 13.2794C46.1304 13.3623 46.0097 13.415 45.8819 13.4315C46.014 13.4429 46.1408 13.4898 46.2494 13.5674C46.3028 13.6016 46.3465 13.6495 46.3762 13.7062C46.4059 13.763 46.4206 13.8266 46.419 13.8909C46.418 13.9746 46.3954 14.0566 46.3534 14.1285C46.3114 14.2004 46.2515 14.2596 46.1797 14.3002C45.9828 14.4163 45.7574 14.4724 45.5302 14.462L45.5223 14.4603ZM47.6752 14.4603C47.5448 14.4659 47.4147 14.443 47.2936 14.3931C47.1726 14.3431 47.0634 14.2673 46.9734 14.1708C46.8019 13.9741 46.7072 13.7199 46.7072 13.4566C46.7072 13.1932 46.8019 12.9391 46.9734 12.7424C47.1624 12.5565 47.4145 12.4527 47.6768 12.4527C47.9391 12.4527 48.1913 12.5565 48.3802 12.7424C48.5518 12.9393 48.6466 13.1938 48.6466 13.4574C48.6466 13.721 48.5518 13.9754 48.3802 14.1724C48.2896 14.2689 48.1798 14.3445 48.0582 14.3942C47.9366 14.4439 47.806 14.4664 47.6752 14.4603ZM47.6752 14.0931C47.751 14.0967 47.8265 14.0822 47.8958 14.0507C47.9651 14.0193 48.0263 13.9718 48.0744 13.912C48.1691 13.7813 48.2202 13.6231 48.2202 13.4606C48.2202 13.2981 48.1691 13.1399 48.0744 13.0093C48.0266 12.9489 47.9656 12.9008 47.8962 12.8688C47.8269 12.8367 47.7512 12.8217 47.6752 12.8249C47.5996 12.8212 47.5242 12.836 47.4553 12.8681C47.3864 12.9001 47.326 12.9486 47.2792 13.0093C47.1845 13.1399 47.1334 13.2981 47.1334 13.4606C47.1334 13.6231 47.1845 13.7813 47.2792 13.912C47.326 13.9727 47.3864 14.0211 47.4553 14.0532C47.5242 14.0853 47.5996 14.1001 47.6752 14.0964V14.0931ZM50.2099 14.4167H49.0566V12.4981H50.183C50.3315 12.4889 50.4777 12.5381 50.5917 12.6356C50.6403 12.6797 50.6787 12.7342 50.7045 12.7951C50.7302 12.856 50.7425 12.922 50.7407 12.9883C50.7438 13.09 50.7119 13.1897 50.6504 13.2697C50.5944 13.3471 50.5155 13.4038 50.4254 13.4315C50.525 13.4543 50.614 13.5114 50.6773 13.5933C50.7437 13.6782 50.7795 13.7839 50.7787 13.8925C50.7813 13.9623 50.7693 14.0318 50.7437 14.0965C50.718 14.1612 50.6792 14.2196 50.6298 14.2678C50.5131 14.3691 50.3628 14.4207 50.2099 14.4118V14.4167ZM50.1244 14.0527C50.1866 14.0565 50.2479 14.0356 50.2955 13.9945C50.3173 13.9741 50.3343 13.949 50.3453 13.921C50.3562 13.893 50.3609 13.8628 50.3589 13.8327C50.3601 13.8027 50.3551 13.7727 50.3442 13.7448C50.3333 13.717 50.3167 13.6918 50.2955 13.6709C50.2726 13.6491 50.2457 13.6323 50.2163 13.6215C50.1869 13.6106 50.1556 13.606 50.1244 13.6078H49.4654V14.0397L50.1244 14.0527ZM50.1133 13.2568C50.1419 13.259 50.1706 13.2554 50.1977 13.2463C50.2249 13.2371 50.2501 13.2225 50.2717 13.2034C50.2901 13.1859 50.3046 13.1646 50.3142 13.1409C50.3238 13.1171 50.3282 13.0916 50.3272 13.0659C50.3286 13.0393 50.3244 13.0126 50.3148 12.9878C50.3052 12.9629 50.2905 12.9405 50.2717 12.9219C50.2501 12.9028 50.2249 12.8883 50.1977 12.8791C50.1706 12.8699 50.1419 12.8664 50.1133 12.8686H49.4654V13.2568H50.1133ZM51.2856 12.5046H51.6959V13.1969H52.3629C52.4474 13.1914 52.5322 13.2041 52.6116 13.2342C52.691 13.2643 52.7633 13.3111 52.8239 13.3717C52.931 13.4896 52.9879 13.6461 52.9823 13.8068C52.9848 13.8854 52.972 13.9637 52.9448 14.0372C52.9177 14.1108 52.8766 14.1782 52.8239 14.2355C52.7638 14.2959 52.6921 14.3428 52.6132 14.3731C52.5344 14.4035 52.4502 14.4167 52.366 14.4118H51.2888V12.4981L51.2856 12.5046ZM52.3122 13.5609H51.6959V14.0462H52.3122C52.3464 14.0483 52.3808 14.0433 52.4131 14.0316C52.4455 14.02 52.4753 14.0018 52.5007 13.9783C52.5446 13.9298 52.5689 13.8663 52.5689 13.8003C52.5689 13.7344 52.5446 13.6708 52.5007 13.6224C52.4753 13.5988 52.4455 13.5807 52.4131 13.569C52.3808 13.5574 52.3464 13.5524 52.3122 13.5545V13.5609ZM53.6809 14.4167H53.2706V12.4981H53.6809V14.4102V14.4167ZM55.0798 14.4636C54.9497 14.4682 54.8201 14.4459 54.6987 14.3981C54.5773 14.3503 54.4666 14.2779 54.3732 14.1853C54.2801 14.0906 54.2072 13.9771 54.1592 13.852C54.1112 13.727 54.0891 13.5932 54.0944 13.459C54.0915 13.328 54.1139 13.1977 54.1604 13.0756C54.2069 12.9534 54.2765 12.8419 54.3653 12.7472C54.4527 12.652 54.5589 12.5768 54.6769 12.5266C54.7949 12.4764 54.9219 12.4524 55.0497 12.4561C55.1758 12.4514 55.3014 12.4753 55.4175 12.5259C55.5336 12.5765 55.6374 12.6526 55.7214 12.7489C55.8963 12.9565 55.9874 13.2242 55.9764 13.4978V13.5884H54.5221C54.5352 13.7331 54.6008 13.8675 54.7059 13.9653C54.8204 14.0688 54.9698 14.1227 55.1226 14.1158C55.2222 14.1155 55.3209 14.0968 55.414 14.0608C55.5058 14.0255 55.5891 13.9703 55.658 13.899L55.845 14.1724C55.6357 14.3642 55.3606 14.4636 55.0798 14.449V14.4636ZM55.5788 13.3037C55.5798 13.1706 55.533 13.0417 55.4473 12.9414C55.3984 12.8871 55.3385 12.8445 55.2717 12.8166C55.2049 12.7886 55.1329 12.776 55.0608 12.7796C54.9906 12.7754 54.9205 12.7868 54.8551 12.8131C54.7897 12.8394 54.7307 12.8798 54.6821 12.9317C54.5903 13.0271 54.5342 13.1525 54.5237 13.2859L55.5788 13.3037ZM58.2339 14.0964C58.3107 14.1002 58.3873 14.0855 58.4575 14.0534C58.5277 14.0214 58.5895 13.9729 58.6379 13.912C58.737 13.7806 58.7884 13.6183 58.7836 13.4525C58.7876 13.2914 58.7361 13.1339 58.6379 13.0077C58.5894 12.9479 58.5279 12.9003 58.4584 12.8689C58.3888 12.8375 58.3131 12.8229 58.2371 12.8265C58.162 12.8227 58.0871 12.8371 58.0185 12.8686C57.9499 12.9001 57.8897 12.9478 57.8426 13.0077C57.7433 13.1334 57.6911 13.2911 57.6953 13.4525C57.6903 13.6186 57.7424 13.7811 57.8426 13.912C57.8892 13.9728 57.9492 14.0213 58.0178 14.0537C58.0864 14.086 58.1616 14.1012 58.2371 14.098L58.2339 14.0964ZM58.9405 14.1708C58.8506 14.2691 58.7409 14.3462 58.6188 14.3968C58.4968 14.4473 58.3655 14.4701 58.2339 14.4636C58.1017 14.4697 57.9699 14.4454 57.8481 14.3925C57.7264 14.3396 57.6178 14.2594 57.5305 14.1578C57.3528 13.9371 57.2609 13.6572 57.2723 13.3717C57.2723 12.9139 57.3484 12.5741 57.5036 12.3493C57.5876 12.2341 57.6952 12.1389 57.8188 12.0705C57.9425 12.002 58.0793 11.9619 58.2197 11.953C58.3557 11.9365 58.4903 11.9089 58.6221 11.8705C58.6965 11.843 58.7345 11.8122 58.7345 11.775H59.1353C59.1353 12.0516 58.8676 12.2215 58.3321 12.2814C58.1586 12.2918 57.9916 12.3524 57.8505 12.4561C57.7459 12.5366 57.6707 12.6504 57.6367 12.7796C57.7137 12.6738 57.8148 12.5888 57.9313 12.5321C58.0516 12.4736 58.1831 12.4432 58.3163 12.4431C58.4366 12.4409 58.5558 12.466 58.6654 12.5166C58.775 12.5673 58.8722 12.6422 58.95 12.7359C59.1164 12.931 59.2057 13.1825 59.2003 13.4412C59.2069 13.7056 59.1132 13.9623 58.9389 14.1578L58.9405 14.1708ZM61.1948 14.4167H60.7845V14.2047C60.7076 14.29 60.6132 14.3568 60.508 14.4005C60.4028 14.4441 60.2895 14.4634 60.1762 14.4571C60.01 14.461 59.848 14.4036 59.7199 14.2953C59.6543 14.2386 59.6022 14.1673 59.5679 14.0868C59.5336 14.0063 59.5178 13.9188 59.5219 13.8311C59.5161 13.7417 59.5315 13.6523 59.5668 13.5703C59.6021 13.4884 59.6563 13.4164 59.7247 13.3603C59.8544 13.2541 60.0162 13.1969 60.1825 13.1986C60.2954 13.1906 60.4087 13.2086 60.5139 13.2511C60.6192 13.2937 60.7138 13.3597 60.7908 13.4444V13.163C60.7931 13.1126 60.7833 13.0624 60.7624 13.0167C60.7414 12.9711 60.7098 12.9313 60.6704 12.9009C60.5779 12.8348 60.4664 12.8018 60.3536 12.8071C60.2495 12.8068 60.1465 12.828 60.0506 12.8694C59.9548 12.9108 59.8682 12.9716 59.7959 13.0481L59.628 12.7586C59.8415 12.5525 60.1264 12.4414 60.4201 12.4496C60.6209 12.4388 60.8196 12.4956 60.9857 12.6114C61.0613 12.6745 61.1207 12.7556 61.1588 12.8475C61.1969 12.9393 61.2125 13.0393 61.2043 13.1387V14.4053L61.1948 14.4167ZM60.3362 14.1789C60.421 14.1863 60.5064 14.1721 60.5846 14.1377C60.6628 14.1033 60.7315 14.0496 60.7845 13.9815V13.6855C60.7317 13.6172 60.663 13.5633 60.5848 13.5289C60.5065 13.4944 60.4211 13.4804 60.3362 13.4881C60.2322 13.4836 60.1301 13.5169 60.0478 13.582C60.0114 13.612 59.9822 13.6503 59.9627 13.6938C59.9432 13.7373 59.9338 13.7849 59.9354 13.8327C59.9338 13.8801 59.9432 13.9271 59.9627 13.9701C59.9823 14.0131 60.0114 14.0508 60.0478 14.0802C60.1306 14.1441 60.2325 14.1767 60.3362 14.1724V14.1789ZM61.5291 14.4636V14.1239C61.6099 14.1239 61.6748 14.0705 61.7223 13.9621C61.786 13.7918 61.826 13.6132 61.8411 13.4315L61.9552 12.5014H63.4095V14.4102H62.9992V12.8621H62.3164L62.2594 13.4752C62.2481 13.7413 62.1683 13.9996 62.0281 14.2242C61.9709 14.3008 61.8963 14.362 61.8107 14.4026C61.7252 14.4432 61.6312 14.4619 61.537 14.4571L61.5291 14.4636ZM63.7469 14.4636V14.1239C63.8277 14.1239 63.8927 14.0705 63.9402 13.9621C64.0047 13.792 64.0447 13.6133 64.059 13.4315L64.1731 12.5014H65.6274V14.4102H65.2171V12.8621H64.5343L64.4773 13.4752C64.4659 13.7413 64.3862 13.9996 64.246 14.2242C64.1888 14.3008 64.1142 14.362 64.0286 14.4026C63.943 14.4432 63.8491 14.4619 63.7549 14.4571L63.7469 14.4636ZM67.0072 14.4636C66.8768 14.4691 66.7467 14.4461 66.6257 14.3962C66.5047 14.3462 66.3955 14.2705 66.3054 14.174C66.1349 13.9768 66.0408 13.7229 66.0408 13.4598C66.0408 13.1968 66.1349 12.9428 66.3054 12.7456C66.4946 12.5597 66.747 12.4558 67.0096 12.4558C67.2722 12.4558 67.5246 12.5597 67.7138 12.7456C67.8844 12.9431 67.9786 13.1973 67.9786 13.4606C67.9786 13.7239 67.8844 13.9782 67.7138 14.1756C67.6227 14.2702 67.5132 14.3442 67.3922 14.3927C67.2713 14.4412 67.1418 14.4631 67.012 14.4571L67.0072 14.4636ZM67.0072 14.0964C67.0833 14.0999 67.1591 14.0851 67.2285 14.053C67.2979 14.021 67.3588 13.9726 67.4064 13.912C67.5021 13.7817 67.5538 13.6234 67.5538 13.4606C67.5538 13.2979 67.5021 13.1395 67.4064 13.0093C67.3569 12.9518 67.296 12.9058 67.2277 12.8743C67.1594 12.8428 67.0853 12.8265 67.0104 12.8265C66.9355 12.8265 66.8614 12.8428 66.7931 12.8743C66.7248 12.9058 66.6639 12.9518 66.6143 13.0093C66.5197 13.1399 66.4686 13.2981 66.4686 13.4606C66.4686 13.6231 66.5197 13.7813 66.6143 13.912C66.6624 13.9712 66.7234 14.0182 66.7925 14.0491C66.8615 14.08 66.9367 14.094 67.012 14.0899L67.0072 14.0964ZM68.8005 14.4199H68.3918V12.4981H68.8005V13.2503H69.6671V12.4981H70.0758V14.4102H69.6671V13.6143H68.8005V14.4102V14.4199ZM70.6065 12.5078H71.0153V13.2002H71.6822C71.767 13.1945 71.852 13.2071 71.9317 13.2372C72.0114 13.2673 72.084 13.3142 72.1448 13.3749C72.252 13.4928 72.309 13.6493 72.3032 13.81C72.3061 13.9683 72.2474 14.1213 72.14 14.2355C72.0801 14.296 72.0084 14.3431 71.9295 14.3734C71.8506 14.4038 71.7664 14.4169 71.6822 14.4118H70.6065V12.4981V12.5078ZM71.6315 13.5642H71.0153V14.0495H71.6315C71.6658 14.0517 71.7002 14.0468 71.7326 14.0351C71.765 14.0235 71.7947 14.0052 71.82 13.9815C71.865 13.9336 71.89 13.8699 71.89 13.8036C71.89 13.7373 71.865 13.6735 71.82 13.6256C71.7947 13.6019 71.765 13.5837 71.7326 13.572C71.7002 13.5603 71.6658 13.5555 71.6315 13.5577V13.5642ZM73.0003 14.4199H72.5915V12.4981H73.0003V14.4199Z" fill="white"/>
</g>
<defs>
<clipPath id="clip0">
<rect width="73" height="17" fill="white"/>
</clipPath>
</defs>
</svg>
