<svg width="50" height="50" viewBox="0 0 50 50" fill="none" xmlns="http://www.w3.org/2000/svg">
<g clip-path="url(#clip0)">
<path d="M43.3144 18.2608C43.2877 18.2608 43.2606 18.2619 43.2334 18.263L16.8807 19.5728L14.1752 14.9869C13.8046 14.3587 13.0617 14.0538 12.3584 14.238L8.82574 15.1619C8.37955 15.2788 8.00347 15.5793 7.79097 15.9891C7.57847 16.3994 7.54966 16.8798 7.71158 17.3119L10.5949 25L7.71109 32.6881C7.54918 33.1207 7.57789 33.6012 7.79048 34.0109C8.0024 34.4207 8.37857 34.7213 8.82525 34.8381L12.3579 35.762C12.4954 35.7984 12.6339 35.8152 12.771 35.8152C13.3427 35.8152 13.8856 35.5142 14.1824 35.0011L16.8906 30.319L43.2335 31.6283C43.2602 31.63 43.2874 31.6305 43.3145 31.6305C47.0003 31.6305 49.9993 28.6316 49.9993 24.9457C49.9993 21.2599 47.0002 18.2608 43.3144 18.2608ZM43.3513 28.3695L16.0584 27.013C15.448 26.9755 14.8719 27.2956 14.566 27.8249L11.9817 32.2934L11.3997 32.1412L13.8627 25.5722C14.0008 25.2026 14.0008 24.7961 13.8627 24.4271L11.3997 17.8586L11.992 17.7037L14.573 22.0781C14.8811 22.6004 15.4584 22.914 16.0584 22.8781L43.3513 21.5216C45.1905 21.5417 46.7382 23.1015 46.7382 24.9455C46.7382 26.7896 45.1905 28.3489 43.3513 28.3695Z" fill="#25A1D3"/>
<path d="M35.807 21.1239L38.6504 19.5282L30.6613 5.28916C30.3727 4.775 29.8293 4.45654 29.2395 4.45654H22.3374C21.8211 4.45654 21.3357 4.70107 21.0281 5.11523C20.7205 5.52988 20.6275 6.06523 20.777 6.55928L25.2336 21.2875L28.3542 20.343L24.5341 7.71738H28.2847L35.807 21.1239Z" fill="#25A1D3"/>
<path d="M35.8618 28.8201L28.2862 42.2826H24.5341L28.3542 29.6571L25.2335 28.7125L20.777 43.4408C20.6276 43.9348 20.7204 44.4701 21.028 44.8848C21.3357 45.2994 21.821 45.5435 22.3373 45.5435H29.2395C29.8286 45.5435 30.3715 45.2261 30.6602 44.713L38.7036 30.4196L35.8618 28.8201Z" fill="#25A1D3"/>
<path d="M14.0752 7.6087H4.29258C3.39199 7.6087 2.66211 8.33859 2.66211 9.23917C2.66211 10.1398 3.39199 10.8696 4.29258 10.8696H14.0752C14.9758 10.8696 15.7057 10.1398 15.7057 9.23917C15.7057 8.33859 14.9758 7.6087 14.0752 7.6087Z" fill="#25A1D3"/>
<path d="M14.0752 39.1305H4.29258C3.39199 39.1305 2.66211 39.8604 2.66211 40.761C2.66211 41.6615 3.39199 42.3914 4.29258 42.3914H14.0752C14.9758 42.3914 15.7057 41.6615 15.7057 40.761C15.7057 39.8604 14.9758 39.1305 14.0752 39.1305Z" fill="#25A1D3"/>
<path d="M5.97822 23.3695H1.63047C0.729883 23.3695 0 24.0994 0 25C0 25.9006 0.729883 26.6304 1.63047 26.6304H5.97832C6.87891 26.6304 7.60879 25.9006 7.60879 25C7.60879 24.0994 6.87881 23.3695 5.97822 23.3695Z" fill="#25A1D3"/>
</g>
<defs>
<clipPath id="clip0">
<rect width="50" height="50" fill="white"/>
</clipPath>
</defs>
</svg>
