<svg width="50" height="50" viewBox="0 0 50 50" fill="none" xmlns="http://www.w3.org/2000/svg">
<g clip-path="url(#clip0)">
<path d="M48.486 20.0019L45.0036 19.4141C44.5605 17.8136 43.9164 16.2476 43.0787 14.7367L45.1296 11.8196C45.6375 11.0975 45.5521 10.115 44.928 9.49092L40.4492 5.01152C39.8203 4.38203 38.827 4.30205 38.1054 4.8208L35.201 6.90801C33.7403 6.09141 32.1562 5.44316 30.5261 4.99521L29.9383 1.51338C29.7912 0.639844 29.0339 0 28.1477 0H21.8522C20.966 0 20.2094 0.639844 20.0617 1.51328L19.4739 4.99629C17.8734 5.43877 16.3081 6.0835 14.7966 6.92119L11.8801 4.87031C11.1585 4.36367 10.1749 4.44775 9.55137 5.07188L5.07207 9.55147C4.44795 10.1756 4.3626 11.158 4.87051 11.8802L6.91465 14.7876C6.09443 16.2513 5.44434 17.8396 4.99512 19.474L1.51328 20.0618C0.639844 20.2095 0 20.9661 0 21.8523V28.1478C0 29.034 0.639844 29.7912 1.51328 29.9383L4.99629 30.5267C5.43877 32.1266 6.0835 33.6925 6.92119 35.204L4.87031 38.1205C4.3624 38.8433 4.44775 39.8257 5.07188 40.4492L9.55127 44.928C10.1754 45.5521 11.1578 45.6368 11.88 45.1296L14.7874 43.0854C16.2511 43.9051 17.8389 44.5558 19.4738 45.005L20.0616 48.4868C20.2093 49.3603 20.966 50.0001 21.8521 50.0001H28.1476C29.0338 50.0001 29.791 49.3603 29.9381 48.4855L30.5265 45.0031C32.127 44.5601 33.6923 43.9159 35.2038 43.0782L38.1203 45.1291C38.8431 45.6363 39.8255 45.5522 40.449 44.9275L44.9278 40.4487C45.5531 39.8229 45.6373 38.8373 45.1264 38.1158L43.0265 35.1485C43.8448 33.686 44.4943 32.1001 44.943 30.4688L48.4823 29.8785C49.3576 29.7326 49.9999 28.9754 49.9999 28.0874V21.792C50 20.9056 49.3602 20.1489 48.486 20.0019ZM46.3675 26.5496L43.1635 27.0835C42.4262 27.2063 41.8391 27.7688 41.6853 28.5006C41.2561 30.5394 40.4425 32.526 39.3329 34.2464C38.9315 34.8692 38.9485 35.6743 39.3765 36.2791L41.2766 38.9644L38.96 41.2804L36.3347 39.4348C35.7372 39.0146 34.9467 38.9923 34.328 39.3803C32.4842 40.5322 30.5436 41.3288 28.5605 41.7465C27.8298 41.9002 27.2681 42.4855 27.1439 43.2217L26.6125 46.3682H23.3873L22.8553 43.2211C22.7312 42.4856 22.1694 41.9003 21.4395 41.7465C19.3995 41.3167 17.4128 40.5031 15.6937 39.3941C15.0726 38.9928 14.2699 39.0092 13.6646 39.4341L11.0398 41.2797L8.71973 38.9601L10.5653 36.3348C10.9854 35.7379 11.0066 34.9468 10.6198 34.3281C9.46729 32.4843 8.67188 30.5437 8.2542 28.5605C8.10049 27.8306 7.51572 27.2682 6.77959 27.144L3.63193 26.6126V23.3874L6.78027 22.8554C7.51631 22.7313 8.10107 22.1695 8.25488 21.4389C8.68408 19.4001 9.49697 17.4128 10.6065 15.6937C11.0072 15.0721 10.9915 14.27 10.566 13.6646L8.72041 11.0399L11.0406 8.71973L13.6653 10.5653C14.2622 10.9854 15.0533 11.0066 15.672 10.6198C17.5158 9.46729 19.4564 8.67188 21.4396 8.2542C22.1702 8.10049 22.7319 7.51572 22.8561 6.77959L23.3875 3.63193H26.6127L27.1441 6.78027C27.2683 7.51631 27.8306 8.10107 28.5606 8.25488C30.6006 8.68408 32.5873 9.49697 34.3058 10.6065C34.9329 11.0115 35.744 10.9897 36.3506 10.5551L38.9717 8.67129L41.2804 10.98L39.4341 13.6053C39.014 14.2027 38.9922 14.9933 39.3796 15.6125C40.5315 17.4558 41.3281 19.3958 41.7458 21.3801C41.8995 22.1101 42.4849 22.6719 43.221 22.7959L46.3675 23.3273V26.5496Z" fill="#25A1D3"/>
<path d="M25.0001 14.9517C19.4929 14.9517 15.0122 19.4323 15.0122 24.9396C15.0122 30.4468 19.4929 34.9274 25.0001 34.9274C30.5067 34.9274 34.988 30.4468 34.988 24.9396C34.988 19.4323 30.5073 14.9517 25.0001 14.9517ZM25.0001 31.2955C21.4952 31.2955 18.6441 28.4444 18.6441 24.9396C18.6441 21.4347 21.4952 18.5836 25.0001 18.5836C28.505 18.5836 31.3561 21.4353 31.3561 24.9396C31.3561 28.4444 28.505 31.2955 25.0001 31.2955Z" fill="#25A1D3"/>
</g>
<defs>
<clipPath id="clip0">
<rect width="50" height="50" fill="white"/>
</clipPath>
</defs>
</svg>
