<svg width="50" height="50" viewBox="0 0 50 50" fill="none" xmlns="http://www.w3.org/2000/svg">
<path d="M44.6429 7.14294H5.35714C2.39847 7.14294 0 9.54142 0 12.5001V37.5C0 40.4587 2.39847 42.8572 5.35714 42.8572H44.6429C47.6015 42.8572 50 40.4587 50 37.5V12.5001C50 9.54142 47.6015 7.14294 44.6429 7.14294ZM46.4285 37.5C46.4285 38.4863 45.629 39.2858 44.6428 39.2858H5.35714C4.37088 39.2858 3.57139 38.4863 3.57139 37.5V26.7858H46.4285V37.5ZM46.4285 23.2144H3.57139V19.643H46.4285V23.2144ZM46.4285 16.0715H3.57139V12.5001C3.57139 11.5138 4.37088 10.7143 5.35714 10.7143H44.6429C45.6291 10.7143 46.4286 11.5138 46.4286 12.5001V16.0715H46.4285Z" fill="#25A1D3"/>
<path d="M41.0712 30.3571H33.9283C32.9421 30.3571 32.1426 31.1565 32.1426 32.1428C32.1426 33.1291 32.9421 33.9286 33.9283 33.9286H41.0712C42.0575 33.9286 42.857 33.1291 42.857 32.1428C42.857 31.1565 42.0575 30.3571 41.0712 30.3571Z" fill="#25A1D3"/>
</svg>
