<svg width="50" height="50" viewBox="0 0 50 50" fill="none" xmlns="http://www.w3.org/2000/svg">
<path d="M19.9197 27C19.7484 27 19.6005 26.9467 19.4759 26.84C19.3669 26.7333 19.3124 26.5962 19.3124 26.4286V24.4171H17.5839C17.4127 24.4171 17.2725 24.3638 17.1635 24.2571C17.0545 24.1352 17 23.9905 17 23.8229V22.9086C17 22.741 17.0545 22.6038 17.1635 22.4971C17.2881 22.3905 17.4282 22.3371 17.5839 22.3371H19.3124V21.1943H17.5839C17.4282 21.1943 17.2881 21.141 17.1635 21.0343C17.0545 20.9124 17 20.7752 17 20.6229V18.7943C17 18.6267 17.0545 18.4895 17.1635 18.3829C17.2881 18.2762 17.4282 18.2229 17.5839 18.2229H19.3124V11.5943C19.3124 11.4267 19.3669 11.2895 19.4759 11.1829C19.6005 11.061 19.7484 11 19.9197 11H26.5299C28.5387 11 30.1192 11.4495 31.2715 12.3486C32.4238 13.2476 33 14.5657 33 16.3029C33 17.9333 32.4238 19.16 31.2715 19.9829C30.1348 20.7905 28.5543 21.1943 26.5299 21.1943H23.8672V22.3371H26.8569C27.0282 22.3371 27.1684 22.3905 27.2774 22.4971C27.3864 22.6038 27.4409 22.741 27.4409 22.9086V23.8229C27.4409 23.9905 27.3864 24.1352 27.2774 24.2571C27.1684 24.3638 27.0282 24.4171 26.8569 24.4171H23.8672V26.4286C23.8672 26.5962 23.8049 26.7333 23.6803 26.84C23.5713 26.9467 23.4311 27 23.2599 27H19.9197ZM26.4131 18.2229C27.0516 18.2229 27.5499 18.0629 27.908 17.7429C28.2818 17.4076 28.4686 16.92 28.4686 16.28C28.4686 15.6857 28.2973 15.2057 27.9547 14.84C27.6122 14.4743 27.0983 14.2914 26.4131 14.2914H23.7737V18.2229H26.4131Z" fill="#25A1D3"/>
<path d="M32.8453 34.5182H17.1553C16.3463 34.5182 15.6904 35.174 15.6904 35.983C15.6904 36.792 16.3463 37.4479 17.1553 37.4479H32.8453C33.6543 37.4479 34.3101 36.792 34.3101 35.983C34.3101 35.174 33.6543 34.5182 32.8453 34.5182Z" fill="#25A1D3"/>
<path d="M42.2593 0H7.74121C6.93223 0 6.27637 0.655858 6.27637 1.46484V44.2202C6.27637 44.6087 6.43076 44.9813 6.70547 45.2561L11.0203 49.5709C11.5923 50.143 12.5198 50.143 13.0919 49.5709L16.3709 46.2919L19.6498 49.5709C19.9245 49.8456 20.297 50 20.6856 50C21.0741 50 21.4467 49.8457 21.7215 49.5709L25.0003 46.2919L28.2793 49.5709C28.554 49.8456 28.9265 50 29.315 50C29.7036 50 30.0761 49.8456 30.3508 49.5709L33.6297 46.2919L36.9087 49.5709C37.1948 49.8569 37.5696 50 37.9445 50C38.3194 50 38.6943 49.857 38.9803 49.5709L43.2951 45.2561C43.5699 44.9814 43.7242 44.6087 43.7242 44.2202V1.46484C43.7241 0.655858 43.0684 0 42.2593 0ZM37.9445 46.4635L34.6655 43.1845C34.3908 42.9098 34.0181 42.7554 33.6296 42.7554C33.2411 42.7554 32.8685 42.9098 32.5938 43.1845L29.3149 46.4635L26.0359 43.1845C25.4639 42.6124 24.5364 42.6124 23.9643 43.1845L20.6853 46.4635L17.4064 43.1845C17.1317 42.9098 16.7592 42.7554 16.3706 42.7554C15.9821 42.7554 15.6096 42.9097 15.3348 43.1845L12.0558 46.4635L9.20585 43.6135V2.92968H40.7944V43.6135H40.7945L37.9445 46.4635Z" fill="#25A1D3"/>
</svg>
