<svg width="50" height="50" viewBox="0 0 50 50" fill="none" xmlns="http://www.w3.org/2000/svg">
<path d="M16.0714 0C10.1023 0 0 1.25361 0 5.95234C0 10.6512 10.1023 11.9047 16.0714 11.9047C22.0404 11.9047 32.1428 10.6511 32.1428 5.95234C32.1429 1.25361 22.0404 0 16.0714 0ZM16.0714 8.3333C8.81182 8.3333 4.65117 6.78809 3.70293 5.95234C4.65117 5.1166 8.8125 3.57139 16.0714 3.57139C23.3303 3.57139 27.4916 5.1166 28.4398 5.95234C27.4917 6.78809 23.331 8.3333 16.0714 8.3333Z" fill="#25A1D3"/>
<path d="M28.5714 11.9048C28.5714 11.8077 28.5987 11.7387 28.6089 11.7202C28.1815 12.475 23.9666 14.2856 16.0714 14.2856C8.17617 14.2856 3.96123 12.4749 3.53389 11.7202C3.54463 11.7387 3.57139 11.8077 3.57139 11.9048H0C0 16.2982 8.65771 17.8571 16.0714 17.8571C23.4851 17.8571 32.1428 16.2982 32.1428 11.9048H28.5714Z" fill="#25A1D3"/>
<path d="M28.5714 17.8571C28.5714 17.7601 28.5987 17.691 28.6089 17.6726C28.1815 18.4274 23.9666 20.238 16.0714 20.238C8.17617 20.238 3.96123 18.4273 3.53389 17.6726C3.54463 17.6911 3.57139 17.7601 3.57139 17.8571H0C0 22.2505 8.65771 23.8094 16.0714 23.8094C23.4851 23.8094 32.1428 22.2505 32.1428 17.8571H28.5714Z" fill="#25A1D3"/>
<path d="M28.5714 23.8096C28.5714 23.7126 28.5981 23.6435 28.6089 23.625C28.1815 24.3798 23.9666 26.1905 16.0714 26.1905C8.17617 26.1905 3.96133 24.3798 3.53389 23.625C3.54463 23.6435 3.57139 23.7125 3.57139 23.8096H0C0 28.203 8.65771 29.7619 16.0714 29.7619C23.4851 29.7619 32.1428 28.203 32.1428 23.8096H28.5714Z" fill="#25A1D3"/>
<path d="M19.3696 32.0256L19.241 32.0328C18.1756 32.0893 17.1696 32.1429 16.0714 32.1429C8.17617 32.1429 3.96123 30.3322 3.53389 29.5774C3.54463 29.5958 3.57139 29.6649 3.57139 29.762H0C0 34.1554 8.65771 35.7143 16.0714 35.7143C17.2637 35.7143 18.316 35.6583 19.4297 35.5989L19.5583 35.5923L19.3696 32.0256Z" fill="#25A1D3"/>
<path d="M19.7708 37.925C18.5851 38.0375 17.3398 38.0952 16.0714 38.0952C8.17617 38.0952 3.96123 36.2845 3.53389 35.5298C3.54463 35.5482 3.57139 35.6173 3.57139 35.7144H0C0 40.1078 8.65771 41.6667 16.0714 41.6667C17.4529 41.6667 18.8119 41.6042 20.1095 41.4804L19.7708 37.925Z" fill="#25A1D3"/>
<path d="M32.1437 5.95227H28.5723V27.9761H32.1437V5.95227Z" fill="#25A1D3"/>
<path d="M3.57139 5.95227H0V35.7142H3.57139V5.95227Z" fill="#25A1D3"/>
<path d="M33.9288 26.1904C27.9598 26.1904 17.8574 27.444 17.8574 32.1428C17.8574 36.8416 27.9598 38.0951 33.9288 38.0951C39.8979 38.0951 50.0002 36.8417 50.0002 32.1429C50.0002 27.444 39.8979 26.1904 33.9288 26.1904ZM33.9288 34.5238C26.6692 34.5238 22.5086 32.9786 21.5604 32.1429C22.5086 31.3071 26.6699 29.7619 33.9288 29.7619C41.1877 29.7619 45.3485 31.3071 46.2973 32.1429C45.349 32.9786 41.1883 34.5238 33.9288 34.5238Z" fill="#25A1D3"/>
<path d="M46.4288 38.0952C46.4288 37.9982 46.4556 37.9291 46.4663 37.9106C46.039 38.6654 41.824 40.4762 33.9288 40.4762C26.0336 40.4762 21.8187 38.6654 21.3913 37.9106C21.4021 37.9291 21.4288 37.9981 21.4288 38.0952H17.8574C17.8574 42.4887 26.5151 44.0476 33.9288 44.0476C41.3425 44.0476 50.0002 42.4887 50.0002 38.0952H46.4288Z" fill="#25A1D3"/>
<path d="M46.4288 44.0476C46.4288 43.9506 46.4556 43.8815 46.4663 43.8632C46.039 44.6179 41.824 46.4286 33.9288 46.4286C26.0336 46.4286 21.8187 44.6178 21.3913 43.8632C21.4021 43.8816 21.4288 43.9507 21.4288 44.0476H17.8574C17.8574 48.4411 26.5151 50 33.9288 50C41.3425 50 50.0002 48.4411 50.0002 44.0476H46.4288Z" fill="#25A1D3"/>
<path d="M49.9991 32.1428H46.4277V44.0476H49.9991V32.1428Z" fill="#25A1D3"/>
<path d="M21.4288 32.1428H17.8574V44.0476H21.4288V32.1428Z" fill="#25A1D3"/>
</svg>
