<svg width="753" height="1005" viewBox="0 0 753 1005" fill="none" xmlns="http://www.w3.org/2000/svg">
<path id="f" fill-rule="evenodd" clip-rule="evenodd" d="M564.62 953.041C507.112 987.023 444.377 1004.01 376.413 1004.01C308.45 1004.01 245.714 987.023 188.207 953.041C130.699 919.059 84.9544 873.315 50.9726 815.807C16.9909 758.299 0 695.564 0 627.6C0 566.172 14.3769 508.011 43.1307 453.117C71.8845 398.224 111.094 353.132 160.76 317.844C176.444 307.388 192.781 306.734 209.772 315.883C226.763 325.032 235.258 338.756 235.258 357.053V564.865C235.258 587.084 242.773 605.708 257.804 620.739C272.834 635.769 291.459 643.284 313.678 643.284C335.897 643.284 354.521 635.769 369.552 620.739C384.582 605.708 392.097 587.084 392.097 564.865C392.097 551.795 387.523 536.765 378.374 519.774C373.146 508.011 363.343 489.713 348.966 464.88C320.213 417.829 299.954 380.579 288.191 353.132C269.894 303.467 262.705 254.455 266.626 206.096C273.161 145.974 296.687 84.546 337.204 21.8104C345.046 8.7405 355.828 1.55207 369.552 0.245066C383.275 -1.06194 395.691 2.85903 406.801 12.008C417.91 21.1569 423.465 32.9198 423.465 47.2967C423.465 86.5064 437.188 125.063 464.635 162.965C480.319 185.184 511.033 217.205 556.778 259.029C598.602 298.239 629.316 328.953 648.921 351.172C681.596 389.075 706.428 427.631 723.419 466.841C743.024 516.506 752.827 570.093 752.827 627.6C752.827 695.564 735.836 758.299 701.854 815.807C667.872 873.315 622.128 919.059 564.62 953.041ZM235.259 871.681C278.389 897.167 325.441 909.91 376.414 909.91C427.386 909.91 474.438 897.167 517.569 871.681C560.699 846.195 595.008 811.886 620.494 768.756C645.98 725.625 658.724 678.573 658.724 627.601C658.724 583.163 650.882 541.993 635.198 504.09C620.821 472.722 600.562 441.354 574.423 409.987C558.739 390.382 532.926 363.262 496.984 328.626C461.041 293.991 435.228 266.871 419.544 247.266C393.405 217.206 373.8 187.145 360.73 157.084C348.967 201.522 350.927 247.266 366.611 294.318C375.76 321.765 395.365 360.974 425.426 411.947C446.338 445.929 460.061 471.415 466.596 488.406C479.666 515.853 486.201 541.339 486.201 564.865C486.201 611.917 469.21 652.433 435.228 686.415C401.247 720.397 360.73 737.388 313.678 737.388C266.626 737.388 226.11 720.397 192.128 686.415C158.146 652.433 141.155 611.917 141.155 564.865V455.078C126.779 477.297 115.342 504.417 106.847 536.438C98.3515 568.459 94.1038 598.847 94.1038 627.601C94.1038 678.573 106.847 725.625 132.333 768.756C157.82 811.886 192.128 846.195 235.259 871.681Z" fill="#25A1D3"/>
</svg>
