<svg width="50" height="50" viewBox="0 0 50 50" fill="none" xmlns="http://www.w3.org/2000/svg">
<path d="M45.1087 13.5868H42.5231L29.9571 1.02092C29.3205 0.384302 28.2881 0.384302 27.6514 1.02092L23.9131 4.7594L20.1746 1.02092C19.538 0.384302 18.5056 0.384302 17.8688 1.02092L5.30293 13.5868H1.63047C0.72998 13.5868 0 14.3169 0 15.2173V47.826C0 48.7264 0.72998 49.4565 1.63047 49.4565H38.5869H45.1087C47.8058 49.4565 50 47.2622 50 44.5652V38.0434V24.9999V18.4781C50 15.781 47.8058 13.5868 45.1087 13.5868ZM28.8044 4.47961L37.9117 13.5869H32.7406L26.2188 7.06516L28.8044 4.47961ZM19.0218 4.47961L22.7603 8.21809L28.1291 13.5869H9.91445L19.0218 4.47961ZM40.2174 44.5652C40.2174 45.4642 39.4859 46.1956 38.5869 46.1956H3.26084V16.8478H5.97822H32.0651H38.5869C39.4859 16.8478 40.2174 17.5792 40.2174 18.4782V23.3696H35.3261C30.831 23.3696 27.1739 27.0266 27.1739 31.5217C27.1739 36.0168 30.831 39.6739 35.3261 39.6739H40.2174V44.5652ZM46.7392 44.5652C46.7392 45.4642 46.0077 46.1956 45.1087 46.1956H43.1979C43.3788 45.6853 43.4783 45.1367 43.4783 44.5652V39.6739H46.7392V44.5652ZM46.7392 36.4129H41.8479H35.3261C32.629 36.4129 30.4348 34.2187 30.4348 31.5216C30.4348 28.8245 32.629 26.6303 35.3261 26.6303H41.8479H46.7392V36.4129ZM46.7392 23.3695H43.4783V18.4781C43.4783 17.9067 43.3789 17.358 43.1979 16.8477H45.1087C46.0077 16.8477 46.7392 17.579 46.7392 18.4781V23.3695Z" fill="#25A1D3"/>
<path d="M35.3258 33.1522C36.2263 33.1522 36.9562 32.4222 36.9562 31.5217C36.9562 30.6212 36.2263 29.8912 35.3258 29.8912C34.4253 29.8912 33.6953 30.6212 33.6953 31.5217C33.6953 32.4222 34.4253 33.1522 35.3258 33.1522Z" fill="#25A1D3"/>
</svg>
