<svg width="50" height="50" viewBox="0 0 50 50" fill="none" xmlns="http://www.w3.org/2000/svg">
<g clip-path="url(#clip0)">
<path d="M32.4092 24.7378C39.2312 24.7378 44.7812 19.1892 44.7812 12.3688C44.7812 5.54854 39.2312 0 32.4092 0C25.5872 0 20.0371 5.54863 20.0371 12.3689C20.0371 19.1893 25.5872 24.7378 32.4092 24.7378ZM32.4092 2.92969C37.6158 2.92969 41.8517 7.16416 41.8517 12.3689C41.8517 17.5737 37.6158 21.8082 32.4092 21.8082C27.2026 21.8082 22.9667 17.5737 22.9667 12.3689C22.9667 7.16416 27.2026 2.92969 32.4092 2.92969Z" fill="#25A1D3"/>
<path d="M48.9927 28.0456C47.4084 26.0059 44.5482 25.6222 42.4895 27.0506L36.9161 30.7792C36.1416 29.3371 34.6188 28.3541 32.8702 28.3541H28.8945C26.8877 26.4719 24.2085 25.4032 21.445 25.4032C19.3709 25.4032 17.3532 25.9891 15.6104 27.0977C14.0399 28.0967 12.7554 29.4765 11.8727 31.1056L11.1264 31.562L10.933 30.9965C10.6713 30.2311 9.83887 29.8226 9.07344 30.0842L0.99151 32.8458C0.226374 33.1072 -0.182611 33.9403 0.079108 34.7058L4.96905 49.0088C5.23087 49.7746 6.06358 50.1824 6.82862 49.9211L14.9106 47.1597C15.6323 46.913 16.1052 46.1252 15.8067 45.2522L28.6311 44.8553C32.1235 44.8506 35.4728 43.778 38.3177 41.7531L47.9888 34.874C50.206 33.2958 50.6637 30.1954 48.9927 28.0456ZM7.26729 46.6752L3.3251 35.1444L8.63477 33.3302C9.20675 35.0032 11.9866 43.1342 12.577 44.861L7.26729 46.6752ZM46.2904 32.4868L36.6193 39.3659C34.2667 41.0404 31.4963 41.9255 28.6078 41.9255C28.5928 41.9255 28.5775 41.9257 28.5625 41.9262L14.8151 42.3517L12.0974 34.4021L13.7492 33.392C13.7496 33.3918 13.7499 33.3915 13.7503 33.3912C13.9935 33.2424 14.1836 33.0239 14.2996 32.7875C15.6478 30.0397 18.3857 28.3327 21.445 28.3327C23.6558 28.3327 25.7091 29.2178 27.2268 30.8248C27.5063 31.1209 27.9078 31.2835 28.2917 31.2835H32.8702C33.7855 31.2835 34.53 32.0276 34.53 32.9424C34.53 33.8475 33.7979 34.6013 32.8702 34.6013H24.6057C23.7967 34.6013 23.1409 35.2571 23.1409 36.0661C23.1409 36.8751 23.7968 37.5309 24.6057 37.5309H32.8702C34.0971 37.5309 35.2497 37.0532 36.1148 36.1868C36.7201 35.5817 37.1349 34.8374 37.3306 34.0265L44.1295 29.4779C44.1377 29.4724 44.1458 29.4669 44.1539 29.4612C44.9557 28.9012 46.0662 29.0536 46.6794 29.843C47.326 30.675 47.1492 31.8756 46.2904 32.4868Z" fill="#25A1D3"/>
<path d="M29.4105 17.8013C29.2956 17.8013 29.1964 17.7647 29.1128 17.6916C29.0397 17.6185 29.0032 17.5245 29.0032 17.4096V16.0309H27.8438C27.7289 16.0309 27.6349 15.9944 27.5618 15.9212C27.4887 15.8377 27.4521 15.7385 27.4521 15.6236V14.9969C27.4521 14.882 27.4887 14.788 27.5618 14.7149C27.6454 14.6418 27.7394 14.6052 27.8438 14.6052H29.0032V13.8219H27.8438C27.7394 13.8219 27.6454 13.7853 27.5618 13.7122C27.4887 13.6287 27.4521 13.5347 27.4521 13.4302V12.1769C27.4521 12.062 27.4887 11.968 27.5618 11.8949C27.6454 11.8218 27.7394 11.7852 27.8438 11.7852H29.0032V7.24181C29.0032 7.12692 29.0397 7.03292 29.1128 6.95981C29.1964 6.87625 29.2956 6.83447 29.4105 6.83447H33.8442C35.1916 6.83447 36.2517 7.14259 37.0246 7.75882C37.7975 8.37505 38.1839 9.2785 38.1839 10.4692C38.1839 11.5867 37.7975 12.4275 37.0246 12.9915C36.2621 13.5451 35.202 13.8219 33.8442 13.8219H32.0582V14.6052H34.0636C34.1784 14.6052 34.2724 14.6418 34.3456 14.7149C34.4187 14.788 34.4552 14.882 34.4552 14.9969V15.6236C34.4552 15.7385 34.4187 15.8377 34.3456 15.9212C34.2724 15.9944 34.1784 16.0309 34.0636 16.0309H32.0582V17.4096C32.0582 17.5245 32.0164 17.6185 31.9329 17.6916C31.8598 17.7647 31.7658 17.8013 31.6509 17.8013H29.4105ZM33.7659 11.7852C34.1941 11.7852 34.5283 11.6755 34.7686 11.4562C35.0192 11.2264 35.1446 10.8922 35.1446 10.4535C35.1446 10.0462 35.0297 9.71717 34.7999 9.4665C34.5701 9.21583 34.2254 9.0905 33.7659 9.0905H31.9955V11.7852H33.7659Z" fill="#25A1D3"/>
</g>
<defs>
<clipPath id="clip0">
<rect width="50" height="50" fill="white"/>
</clipPath>
</defs>
</svg>
