<svg width="50" height="50" viewBox="0 0 50 50" fill="none" xmlns="http://www.w3.org/2000/svg">
<path d="M20.5547 37C20.4049 37 20.2754 36.95 20.1664 36.85C20.071 36.75 20.0234 36.6214 20.0234 36.4643V34.5786H18.5109C18.3611 34.5786 18.2384 34.5286 18.1431 34.4286C18.0477 34.3143 18 34.1786 18 34.0214V33.1643C18 33.0071 18.0477 32.8786 18.1431 32.7786C18.2521 32.6786 18.3747 32.6286 18.5109 32.6286H20.0234V31.5571H18.5109C18.3747 31.5571 18.2521 31.5071 18.1431 31.4071C18.0477 31.2929 18 31.1643 18 31.0214V29.3071C18 29.15 18.0477 29.0214 18.1431 28.9214C18.2521 28.8214 18.3747 28.7714 18.5109 28.7714H20.0234V22.5571C20.0234 22.4 20.071 22.2714 20.1664 22.1714C20.2754 22.0571 20.4049 22 20.5547 22H26.3387C28.0963 22 29.4793 22.4214 30.4876 23.2643C31.4959 24.1071 32 25.3429 32 26.9714C32 28.5 31.4959 29.65 30.4876 30.4214C29.4929 31.1786 28.11 31.5571 26.3387 31.5571H24.0088V32.6286H26.6248C26.7747 32.6286 26.8973 32.6786 26.9927 32.7786C27.0881 32.8786 27.1358 33.0071 27.1358 33.1643V34.0214C27.1358 34.1786 27.0881 34.3143 26.9927 34.4286C26.8973 34.5286 26.7747 34.5786 26.6248 34.5786H24.0088V36.4643C24.0088 36.6214 23.9543 36.75 23.8453 36.85C23.7499 36.95 23.6273 37 23.4774 37H20.5547ZM26.2365 28.7714C26.7951 28.7714 27.2311 28.6214 27.5445 28.3214C27.8715 28.0071 28.035 27.55 28.035 26.95C28.035 26.3929 27.8852 25.9429 27.5854 25.6C27.2856 25.2571 26.836 25.0857 26.2365 25.0857H23.927V28.7714H26.2365Z" fill="#25A1D3"/>
<path d="M8 29.5C8 32.9612 8.99703 36.3446 10.865 39.2225C12.733 42.1003 15.388 44.3434 18.4944 45.6679C21.6007 46.9924 25.0189 47.339 28.3165 46.6637C31.6142 45.9885 34.6433 44.3218 37.0208 41.8744C39.3983 39.427 41.0174 36.3087 41.6733 32.9141C42.3293 29.5194 41.9926 26.0007 40.706 22.803C39.4193 19.6053 37.2403 16.8722 34.4447 14.9493C31.6491 13.0264 28.3623 12 25 12" stroke="#25A1D3" stroke-width="4" stroke-linecap="round"/>
<path d="M26 12H9" stroke="#25A1D3" stroke-width="4"/>
<path d="M17 4L9 12L17 20.5" stroke="#25A1D3" stroke-width="4" stroke-linecap="round" stroke-linejoin="round"/>
</svg>
